<svg xmlns="http://www.w3.org/2000/svg" fill="none" viewBox="0 0 88 31"><path fill="#000" d="M72.678 27.923h-1.182l1.586-4.92h1.442l1.578 4.92h-1.258l-.32-1.135h-1.525l-.32 1.135Zm1.118-3.86h-.055l-.522 1.87h1.092l-.515-1.87ZM67.121 26.518h1.128a.57.57 0 0 0 .08.227.69.69 0 0 0 .183.19.956.956 0 0 0 .274.127c.106.031.226.047.36.047.186 0 .337-.024.455-.072a.588.588 0 0 0 .266-.202.515.515 0 0 0 .087-.292.399.399 0 0 0-.184-.353c-.123-.082-.304-.148-.544-.198l-.696-.152a2.226 2.226 0 0 1-.688-.252 1.276 1.276 0 0 1-.458-.454 1.378 1.378 0 0 1-.162-.692c0-.315.08-.586.241-.815.164-.23.388-.407.674-.53a2.5 2.5 0 0 1 1.002-.187c.411 0 .755.069 1.031.206.279.134.49.312.634.533.144.221.221.459.23.714H69.94a.58.58 0 0 0-.119-.274.673.673 0 0 0-.266-.206.984.984 0 0 0-.418-.08c-.238 0-.42.054-.548.16a.488.488 0 0 0-.188.392c0 .133.058.24.173.321.118.082.28.143.487.184l.713.148c.253.048.48.126.682.234.204.108.366.257.486.447s.18.435.18.735c0 .312-.076.589-.23.829-.154.238-.381.424-.681.559-.298.134-.668.201-1.11.201-.346 0-.643-.04-.89-.122a1.702 1.702 0 0 1-.61-.335 1.371 1.371 0 0 1-.353-.48 1.561 1.561 0 0 1-.126-.558ZM66.657 10.672h.576c.443-1.978 2.223-3.472 4.333-3.472 2.439 0 4.438 2 4.438 4.438 0 2.435-2 4.439-4.438 4.439-1.209 0-2.523-.585-3.24-1.446-.285-.325-.276-.69-.025-.914.28-.246.645-.163.91.092.606.66 1.414 1.05 2.355 1.05a3.212 3.212 0 0 0 3.22-3.22 3.215 3.215 0 0 0-3.22-3.222c-1.45 0-2.668.945-3.077 2.255h.594c.386 0 .479.36.272.628l-1.208 1.6a.343.343 0 0 1-.558 0l-1.209-1.596c-.21-.276-.119-.632.277-.632Z"/><circle cx="71.61" cy="11.64" r="7.747" stroke="#000" stroke-width="1.625"/><path fill="#000" d="M49.972 27.92h-1.185V26.2L47.14 23h1.297l.937 2.03h.047l.944-2.03h1.254l-1.647 3.172v1.748ZM42.912 27.92V23h2.177c.454 0 .82.107 1.096.32.276.212.414.508.414.887 0 .21-.04.389-.122.537a.971.971 0 0 1-.318.357 1.182 1.182 0 0 1-.436.18v.055c.183.012.358.063.526.155.171.088.31.22.418.392.111.17.166.385.166.642 0 .295-.075.548-.227.757a1.447 1.447 0 0 1-.616.475 2.212 2.212 0 0 1-.865.163h-2.213Zm1.172-4.08V25h.576c.183 0 .332-.024.447-.072.115-.05.2-.119.252-.205a.575.575 0 0 0 .083-.31.539.539 0 0 0-.17-.418c-.112-.104-.273-.155-.482-.155h-.706Zm0 1.924v1.316h.641c.322 0 .554-.058.696-.173a.59.59 0 0 0 .212-.48.658.658 0 0 0-.09-.35.553.553 0 0 0-.263-.23 1.008 1.008 0 0 0-.436-.083h-.76ZM47.26 8.71a.947.947 0 1 1 0-1.895c.529 0 .948.424.948.948 0 .523-.42.947-.948.947Zm-2.05 3.95v-1.863c0-.962.706-1.595 1.736-1.595h.633c1.03 0 1.736.633 1.736 1.595v1.863a.388.388 0 0 1-.392.387.387.387 0 0 1-.387-.387v-1.668a.138.138 0 0 0-.142-.136.137.137 0 0 0-.136.136v5.048a.425.425 0 0 1-.428.428.424.424 0 0 1-.424-.428v-3.07a.15.15 0 0 0-.146-.146.15.15 0 0 0-.141.146v3.07a.428.428 0 0 1-.428.428.424.424 0 0 1-.424-.428v-5.047a.138.138 0 0 0-.141-.137.134.134 0 0 0-.137.136v1.668a.388.388 0 0 1-.392.387.387.387 0 0 1-.387-.387Z"/><circle cx="47.26" cy="11.64" r="7.747" stroke="#000" stroke-width="1.625"/><path fill="#000" d="M21.49 15.168v.772c0 .387.051.715.152.984.105.27.254.473.45.61.198.139.435.207.71.207.243 0 .451-.05.626-.15.179-.105.317-.246.414-.425a1.43 1.43 0 0 0 .167-.61h1.579v.197c-.01.47-.138.884-.384 1.24a2.443 2.443 0 0 1-.989.828 3.32 3.32 0 0 1-1.422.293c-.643 0-1.188-.13-1.635-.389a2.53 2.53 0 0 1-1.014-1.1c-.229-.474-.343-1.037-.343-1.69v-.767c0-.656.116-1.22.348-1.695.232-.478.57-.846 1.014-1.105.447-.259.99-.389 1.63-.389.4 0 .768.058 1.105.172.336.111.629.273.878.484.248.212.444.466.585.762.145.293.22.62.227.984v.191h-1.58a1.477 1.477 0 0 0-.17-.63 1.081 1.081 0 0 0-.41-.434 1.17 1.17 0 0 0-.625-.161c-.276 0-.512.072-.707.217a1.327 1.327 0 0 0-.449.615c-.104.27-.156.6-.156.99ZM14.68 15.168v.772c0 .387.05.715.15.984.105.27.255.473.45.61.198.139.435.207.711.207.242 0 .451-.05.626-.15.178-.105.316-.246.414-.425.097-.178.153-.381.166-.61h1.58v.197c-.01.47-.139.884-.384 1.24a2.443 2.443 0 0 1-.989.828 3.32 3.32 0 0 1-1.423.293c-.642 0-1.187-.13-1.635-.389a2.53 2.53 0 0 1-1.014-1.1c-.229-.474-.343-1.037-.343-1.69v-.767c0-.656.116-1.22.348-1.695.232-.478.57-.846 1.014-1.105.448-.259.991-.389 1.63-.389.4 0 .769.058 1.105.172.337.111.63.273.878.484.249.212.444.466.585.762.145.293.22.62.227.984v.191h-1.579a1.475 1.475 0 0 0-.171-.63 1.082 1.082 0 0 0-.41-.434 1.17 1.17 0 0 0-.625-.161c-.276 0-.511.072-.706.217a1.327 1.327 0 0 0-.45.615c-.104.27-.156.6-.156.99Z"/><circle cx="19.3" cy="15.5" r="10.5" stroke="#000" stroke-width="2"/></svg>
