<svg xmlns="http://www.w3.org/2000/svg" width="16" height="16" fill="none"><path fill="#000" d="M5.315 8.374c0 .547.426.992.944.992.525 0 .943-.445.943-.992.009-.543-.413-.992-.943-.992-.526 0-.944.445-.944.992ZM8.804 8.374c0 .547.426.992.944.992.53 0 .943-.445.943-.992.009-.543-.414-.992-.943-.992-.526 0-.944.445-.944.992Z"/><path fill="#000" fill-rule="evenodd" d="M8 16A8 8 0 1 0 8 0a8 8 0 0 0 0 16ZM9.501 4.25c.75.122 1.469.334 2.138.622.006.002.01.006.013.011 1.186 1.635 1.772 3.479 1.553 5.601a.03.03 0 0 1-.014.023 8.917 8.917 0 0 1-2.626 1.242.034.034 0 0 1-.037-.012 6.487 6.487 0 0 1-.536-.817.03.03 0 0 1 .018-.044c.286-.101.558-.222.82-.365a.03.03 0 0 0 .002-.053 4.104 4.104 0 0 1-.163-.12.034.034 0 0 0-.034-.004c-1.698.736-3.558.736-5.277 0a.034.034 0 0 0-.034.005 4.41 4.41 0 0 1-.162.12.03.03 0 0 0 .003.052c.261.14.533.264.819.365.019.007.027.027.018.044-.154.286-.334.559-.536.817a.035.035 0 0 1-.037.012 8.946 8.946 0 0 1-2.622-1.242.033.033 0 0 1-.014-.023c-.183-1.836.19-3.695 1.552-5.601a.03.03 0 0 1 .014-.011c.67-.288 1.387-.5 2.137-.621a.035.035 0 0 1 .034.015c.093.154.199.35.27.512a8.524 8.524 0 0 1 2.401 0 5.51 5.51 0 0 1 .266-.512.033.033 0 0 1 .034-.015Z" clip-rule="evenodd"/></svg>
