<svg xmlns="http://www.w3.org/2000/svg" xmlns:xlink="http://www.w3.org/1999/xlink" fill="none" viewBox="0 0 135 135"><linearGradient id="a"><stop offset=".27" stop-color="#82aec0"/><stop offset="1" stop-color="#82aec0" stop-opacity="0"/></linearGradient><linearGradient xlink:href="#a" id="c" x1="111.98" x2="112.19" y1="70.2" y2="55.91" gradientUnits="userSpaceOnUse"/><linearGradient id="b"><stop offset="0" stop-color="#2f7889"/><stop offset="1" stop-color="#82aec0"/></linearGradient><linearGradient xlink:href="#b" id="d" x1="72.89" x2="108.25" y1="67.22" y2="67.22" gradientUnits="userSpaceOnUse"/><linearGradient xlink:href="#b" id="e" x1="63.03" x2="27.74" y1="67.22" y2="67.22" gradientUnits="userSpaceOnUse"/><linearGradient xlink:href="#a" id="f" x1="24.01" x2="23.82" y1="70.2" y2="55.91" gradientUnits="userSpaceOnUse"/><path fill="#c62828" d="m73.15 80.6 40.1 3.81c3.78.37 4.75-1.74 4.75-3.52l-.04-2.17-49.32-6.95c0 2.47 2 8.83 4.51 8.83z"/><path fill="#f44336" d="m74.62 78.71 6.3.56 33.8 3.26A3.25 3.25 0 0 0 118 79.3l-1.8-54.73a3.26 3.26 0 0 0-3.27-3.23l-38.31-3.62a4.52 4.52 0 0 0-4.55 4.48v52.04a4.5 4.5 0 0 0 4.55 4.47z"/><path fill="#c62828" d="m62.85 80.6-40.1 3.81c-3.78.37-4.75-1.74-4.75-3.52l.04-2.17 49.32-6.96c0 2.48-2 8.84-4.51 8.84z"/><path fill="#f44336" d="m61.38 78.71-6.26.56-33.84 3.27A3.25 3.25 0 0 1 18 79.3l1.8-54.74a3.25 3.25 0 0 1 3.27-3.23l38.31-3.61a4.52 4.52 0 0 1 4.55 4.47v52.04a4.5 4.5 0 0 1-4.55 4.47z"/><path fill="#424242" d="M80.18 66.46H55.83L55.1 79.3l7.6.71s1.63 4.07 5.31 4.07 5.3-4.08 5.3-4.08l7.6-.7z"/><path fill="#616161" d="m80.75 81.32-7.08-.6.18-2.06 7.08.61zm-25.68-2.05 7.08-.61.18 2.06-7.08.6z"/><path fill="#94c6d6" d="m113.97 24.45-3.3-4.54L68 68.4 25.34 19.9l-3.3 4.55-.47 53.98s8.77 1.1 20.5-.09c10.2-1.03 15.01-3.67 18.42-2.99 4.1.83 4.84 3.35 4.97 3.78.38 1.19 1.11 2.11 2.54 2.11s2.07-.5 2.5-1.97c.14-.43.91-3.08 5-3.91 3.42-.69 8.23 1.96 18.44 2.99 11.72 1.19 20.5.09 20.5.09z"/><path fill="url(#c)" d="m109.55 73.23.13-21.8h4.52l.23 27s-3.6-1.4-4.88-5.2z"/><path fill="url(#d)" d="m109.76 60.52-.21 12.72s-9.88-.52-25.62-3.24C73.64 68.2 68 73.93 68 73.93l-.1-13.4z"/><path fill="url(#e)" d="m26.24 60.52.21 12.72s9.88-.52 25.62-3.24C62.36 68.2 68 73.93 68 73.93l-.1-13.4z"/><path fill="url(#f)" d="m26.45 73.23-.13-21.8h-4.53l-.22 27s3.58-1.4 4.88-5.2z"/><path fill="#f5f5f5" d="M110.67 19.9s-21.93-4.11-31.55-4.65c-9.05-.5-10.91 4.1-11.1 4.66H68c-.19-.56-2.05-5.16-11.1-4.66-9.62.54-31.55 4.66-31.55 4.66l-.97 53.2s26.1-5.47 32.42-4.76c6.32.7 11.21 5.58 11.21 5.58s4.9-4.87 11.22-5.58 32.42 4.75 32.42 4.75z"/><path fill="#94c6d6" d="m59.43 15.26-4.46 53.03c.7-.02 1.32 0 1.81.06 6.31.7 11.22 5.58 11.22 5.58l-.14-54.02s-1.07-4.23-8.43-4.65z" opacity=".26"/><path fill="#757575" d="m36.04 22.27-5.1.9v1.68l5.1-.91zm20.1-2.66v1.64c4.4 0 6.85 1.1 7.65 1.55v-1.84c-1.36-.6-3.85-1.36-7.64-1.35zm-3.58.2a230.6 230.6 0 0 0-12.93 1.86v1.67a245.6 245.6 0 0 1 12.93-1.86zm-8.8 7.14c-4.28.67-8.56 1.4-12.83 2.17v1.67a527.4 527.4 0 0 1 12.83-2.18zm9.94-1.3c-1.74.15-3.96.43-6.35.76v1.67c2.44-.35 4.72-.63 6.48-.78 5.93-.49 9.07.97 9.94 1.46v-1.84c-1.62-.72-4.86-1.7-10.07-1.26zm-16.78 8.36c-2.6.44-4.79.83-6 1.06v1.67c1.09-.2 3.3-.6 6-1.06zm26.85-1.12c-1.61-.72-4.86-1.72-10.12-1.28-3.36.27-8.5 1.04-13.14 1.8v1.68a199 199 0 0 1 13.28-1.83c6.03-.5 9.17 1.02 9.98 1.5zm0 5.97c-1.59-.72-4.86-1.74-10.15-1.3l-1.73.16v1.67c.67-.08 1.3-.14 1.87-.19 6.14-.5 9.28 1.08 10.03 1.52zm-15.47-.69C42.5 39 36.7 39.95 30.94 41v1.68a450.5 450.5 0 0 1 17.36-2.85zm-9.83 7.47c-3.25.54-6.06 1.05-7.53 1.31v1.68c1.33-.25 4.18-.76 7.53-1.32zm25.32-.8c-1.58-.72-4.87-1.76-10.21-1.32-2.98.24-7.34.86-11.52 1.53v1.67c4.22-.68 8.66-1.31 11.65-1.56 6.3-.52 9.45 1.16 10.08 1.54zm.01 11.96c-1.5-.72-4.75-1.8-10.12-1.4v1.66c6.84-.55 9.95 1.5 10.12 1.62zm-26.88.99-5.97 1.05v1.68c2-.37 3.98-.72 5.97-1.06zm3.59-.6v1.68c3.19-.53 6.38-1 9.58-1.42v-1.67c-2.91.37-6.36.89-9.58 1.41zm5.74 5.06c-5.1.76-10.2 1.6-15.29 2.54v1.67c2.47-.45 9.24-1.66 15.3-2.54zm17.56.53c-1.5-.73-4.82-1.86-10.37-1.4-1.05.08-2.27.22-3.6.38v1.66c1.37-.17 2.65-.31 3.73-.4 7.07-.59 10.18 1.6 10.2 1.63l.05-.05zM45.02 50.54c-4.7.71-9.4 1.5-14.08 2.36v1.68c2.22-.4 8.3-1.5 14.08-2.37zm18.78.28c-1.56-.73-4.85-1.8-10.27-1.36-1.39.12-3.08.32-4.92.56v1.67c1.9-.25 3.64-.46 5.06-.58 6.5-.53 9.65 1.28 10.13 1.58zm24.36-28.94c6.84.91 15.78 2.53 18.2 2.97v-1.68a434.9 434.9 0 0 0-18.2-2.96v1.67zm-3.59-2.08-1.02-.1c-5.17-.42-8.41.55-10.04 1.26v1.84c.93-.51 4.06-1.93 9.91-1.45l1.15.11zm15.12 9.82c2.23.38 4.46.78 6.69 1.18v-1.67c-2.23-.41-4.46-.8-6.7-1.18zm-3.59-2.27c-4.14-.7-8.31-1.27-12.5-1.7-5.2-.42-8.45.55-10.07 1.27v1.84c.87-.5 4-1.95 9.93-1.46 3.23.26 8.13 1 12.63 1.72v-1.67zm-.7 5.83v1.67c4.8.77 9.28 1.58 10.98 1.9v-1.68c-1.93-.35-6.31-1.14-10.97-1.89zm-7.24 4.88c-1.49-.2-2.98-.36-4.47-.5-5.3-.43-8.57.59-10.16 1.31v1.86c.74-.44 3.89-2.02 10.02-1.52 1.3.1 2.9.3 4.6.52zm3.59.5v1.68c4.88.74 9.76 1.56 14.62 2.45V41c-4.86-.89-9.74-1.7-14.62-2.44zm.73 6.06c-3.27-.5-6.43-.91-8.74-1.1-5.36-.44-8.64.6-10.21 1.33v1.86c.62-.39 3.77-2.06 10.07-1.54 2.34.19 5.57.63 8.88 1.13v-1.68zm3.58.56v1.68c4.5.73 8.6 1.47 10.3 1.78v-1.68a485.7 485.7 0 0 0-10.3-1.78zm5.84 6.93v1.67c1.95.34 3.54.63 4.45.8V52.9zM88.9 56a100 100 0 0 0-5.07-.58c-5.49-.46-8.8.65-10.32 1.38v1.88c.17-.12 3.3-2.19 10.2-1.62 1.45.12 3.25.33 5.2.6V56zm3.58.5v1.68a507.9 507.9 0 0 1 13.87 2.34v-1.68c-2.47-.45-8.32-1.49-13.87-2.33zm2.93 6.41a172.7 172.7 0 0 0-11.54-1.54c-5.56-.46-8.88.68-10.38 1.4v1.82l.04.05c.03-.02 3.14-2.22 10.21-1.63 3 .25 7.46.9 11.68 1.57V62.9zm3.6.6v1.67c3.2.54 5.95 1.03 7.34 1.3v-1.69c-1.52-.28-4.23-.76-7.35-1.28zM83.63 49.45c-5.34-.42-8.6.65-10.13 1.37v1.87c.48-.3 3.62-2.11 10.13-1.58zm3.59.38v1.66c3.4.43 7.5 1.08 11.09 1.67V51.5c-3.62-.6-7.71-1.23-11.09-1.66zm-6.24-18.32c-3.7.03-6.14.79-7.46 1.38v1.85c.7-.4 3.07-1.54 7.46-1.58zm3.58.18v1.67c2.06.2 4.61.55 7.24.94v-1.67c-2.64-.4-5.18-.74-7.24-.94z" opacity=".5"/><path fill="#616161" d="M73.91 78.66a2 2 0 0 0-2.07 1.37c-.45 1.35-1.49 3.11-3.84 3.11-2.38 0-3.43-1.77-3.88-3.11a2 2 0 0 0-2.05-1.36l-.32.03v.26a6.23 6.23 0 1 0 12.47-.27z"/><path fill="#000" d="M5.77 116.19c.8 0 1.29-.5 1.29-1.35v-11.09h3.3c.7 0 1.18-.42 1.18-1.09 0-.67-.47-1.09-1.18-1.09H1.18c-.71 0-1.18.42-1.18 1.1 0 .66.48 1.08 1.18 1.08h3.3v11.1c0 .84.48 1.34 1.29 1.34zm8.44.03c.73 0 1.25-.48 1.25-1.32v-4.98c0-1.56.9-2.6 2.4-2.6 1.45 0 2.19.89 2.19 2.37v5.21c0 .84.51 1.32 1.24 1.32s1.25-.48 1.25-1.32v-5.72c0-2.43-1.37-3.98-3.71-3.98-1.61 0-2.78.74-3.35 2.03h-.05v-4.58c0-.79-.47-1.28-1.24-1.28-.76 0-1.23.5-1.23 1.28v12.25c0 .84.52 1.32 1.25 1.32zm15.05 0c2.02 0 3.6-.79 4.3-2.14.11-.22.17-.44.17-.63 0-.6-.44-.96-1-.96-.35 0-.58.11-.84.4-.8 1.02-1.53 1.41-2.65 1.41-1.62 0-2.65-1.14-2.65-2.91v-.08h6.25c.74 0 1.16-.44 1.16-1.18 0-2.88-1.98-4.95-4.88-4.95-3.06 0-5.02 2.19-5.02 5.57 0 3.44 1.92 5.48 5.16 5.48zm-2.65-6.55c.1-1.52 1.12-2.55 2.52-2.55s2.38 1 2.43 2.55zm13.99 6.52c.67 0 1.05-.34 1.3-1.12l.94-2.74h5.4l.95 2.76c.23.77.62 1.1 1.32 1.1.75 0 1.29-.5 1.29-1.2 0-.23-.05-.46-.17-.79l-4.2-11.4c-.36-.98-.94-1.4-1.9-1.4-.94 0-1.52.44-1.87 1.4l-4.2 11.4a2.3 2.3 0 0 0-.16.8c0 .72.5 1.19 1.3 1.19zm2.85-5.9 2.03-6.17h.07l2.06 6.17zm11.22 9.5c.73 0 1.25-.47 1.25-1.31v-4.23h.05a3.53 3.53 0 0 0 3.33 1.94c2.66 0 4.36-2.1 4.36-5.48 0-3.4-1.71-5.49-4.4-5.49-1.54 0-2.74.79-3.35 2.02h-.05v-.76c0-.83-.5-1.29-1.22-1.29s-1.2.46-1.2 1.29v12c0 .84.5 1.3 1.23 1.3zm3.83-5.65c-1.55 0-2.59-1.35-2.6-3.43.01-2.06 1.05-3.43 2.6-3.43 1.6 0 2.61 1.34 2.61 3.43 0 2.1-1 3.43-2.61 3.43zm8 5.65c.74 0 1.26-.47 1.26-1.31v-4.23h.05a3.53 3.53 0 0 0 3.32 1.94c2.66 0 4.36-2.1 4.36-5.48 0-3.4-1.7-5.49-4.4-5.49-1.54 0-2.74.79-3.34 2.02h-.05v-.76c0-.83-.51-1.29-1.23-1.29-.7 0-1.2.46-1.2 1.29v12c0 .84.5 1.3 1.23 1.3zm3.83-5.65c-1.55 0-2.58-1.35-2.6-3.43.02-2.06 1.05-3.43 2.6-3.43 1.61 0 2.61 1.34 2.61 3.43 0 2.1-1 3.43-2.61 3.43zm8.09 2.08c.73 0 1.24-.48 1.24-1.32v-12.22c0-.84-.51-1.31-1.24-1.31s-1.25.47-1.25 1.31v12.22c0 .84.52 1.32 1.25 1.32zm8.08 0c2.02 0 3.6-.79 4.3-2.14.1-.22.17-.44.17-.63 0-.6-.44-.96-1-.96-.35 0-.58.11-.84.4-.8 1.02-1.53 1.41-2.66 1.41-1.62 0-2.65-1.14-2.65-2.91v-.08h6.26c.74 0 1.16-.44 1.16-1.18 0-2.88-1.98-4.95-4.89-4.95-3.06 0-5.01 2.19-5.01 5.57 0 3.44 1.91 5.48 5.15 5.48zm-2.66-6.55c.1-1.52 1.12-2.55 2.52-2.55s2.39 1 2.44 2.55zm17.6 6.52c.81 0 1.27-.39 1.51-1.29l2.67-9.34h.1l2.68 9.34c.25.91.69 1.29 1.52 1.29.79 0 1.23-.4 1.47-1.29l3.21-11.52c.1-.33.13-.6.13-.82 0-.7-.5-1.16-1.27-1.16-.67 0-1.09.36-1.25 1.08l-2.41 10.03h-.08l-2.66-9.92c-.22-.8-.65-1.19-1.38-1.19-.76 0-1.18.36-1.4 1.22l-2.65 9.9h-.08l-2.41-10.04c-.16-.7-.58-1.08-1.25-1.08-.78 0-1.28.45-1.28 1.16 0 .23.04.5.13.82l3.2 11.51c.26.9.7 1.3 1.5 1.3zm16.29-12.28c.79 0 1.4-.6 1.4-1.35 0-.76-.61-1.35-1.4-1.35a1.35 1.35 0 1 0 0 2.7zm0 12.3c.77 0 1.26-.5 1.26-1.3v-8.4c0-.8-.5-1.32-1.25-1.32s-1.25.51-1.25 1.32v8.4c0 .8.48 1.3 1.25 1.3zm4.67.01c.73 0 1.24-.48 1.24-1.32v-2.53l.94-.88 3.19 4.03c.36.52.65.7 1.14.7.69 0 1.18-.47 1.18-1.12 0-.32-.08-.54-.34-.9l-3.33-4.15 3.03-2.86c.34-.32.45-.55.45-.92 0-.6-.47-1.08-1.1-1.08-.37 0-.64.14-.96.48l-4.17 4.12h-.03v-7.1c0-.85-.51-1.32-1.24-1.32s-1.25.47-1.25 1.31v12.22c0 .84.52 1.32 1.25 1.32zm10.61-12.31c.78 0 1.4-.6 1.4-1.35 0-.76-.62-1.35-1.4-1.35a1.35 1.35 0 1 0 0 2.7zm0 12.3c.76 0 1.25-.5 1.25-1.3v-8.4c0-.8-.49-1.32-1.25-1.32s-1.24.51-1.24 1.32v8.4c0 .8.48 1.3 1.24 1.3z"/></svg>
