<svg xmlns="http://www.w3.org/2000/svg" fill="none" viewBox="0 0 135 23"><path fill="#000" d="M6.07 19.04c.8 0 1.29-.49 1.29-1.34V6.61h3.3c.7 0 1.18-.42 1.18-1.09 0-.67-.47-1.09-1.18-1.09H1.48C.77 4.43.3 4.85.3 5.53c0 .66.48 1.08 1.18 1.08h3.3v11.1c0 .84.48 1.33 1.29 1.33Zm8.44.03c.73 0 1.25-.47 1.25-1.3v-5c0-1.55.9-2.6 2.4-2.6 1.45 0 2.19.9 2.19 2.38v5.21c0 .84.51 1.31 1.24 1.31s1.25-.47 1.25-1.3v-5.73c0-2.43-1.37-3.98-3.71-3.98-1.61 0-2.78.73-3.35 2.03h-.05V5.5c0-.79-.47-1.28-1.24-1.28-.76 0-1.23.5-1.23 1.28v12.25c0 .84.52 1.31 1.25 1.31Zm15.05.01c2.02 0 3.6-.79 4.3-2.14.11-.22.17-.44.17-.63 0-.6-.44-.96-1-.96-.35 0-.58.11-.84.4-.8 1.02-1.53 1.41-2.65 1.41-1.62 0-2.65-1.14-2.65-2.91v-.08h6.25c.74 0 1.16-.44 1.16-1.18 0-2.88-1.98-4.95-4.88-4.95-3.06 0-5.02 2.19-5.02 5.57 0 3.44 1.92 5.47 5.16 5.47Zm-2.65-6.55c.1-1.52 1.12-2.55 2.52-2.55s2.38 1 2.43 2.55h-4.95Zm13.99 6.51c.67 0 1.05-.33 1.3-1.1l.94-2.75h5.4l.95 2.76c.23.77.62 1.1 1.32 1.1.75 0 1.29-.5 1.29-1.2 0-.23-.05-.46-.17-.79l-4.2-11.4c-.36-.98-.94-1.4-1.9-1.4-.94 0-1.52.44-1.87 1.4l-4.2 11.4c-.11.31-.16.6-.16.8 0 .72.5 1.18 1.3 1.18Zm2.85-5.9 2.03-6.16h.07l2.06 6.17h-4.16Zm11.22 9.51c.73 0 1.25-.47 1.25-1.31V17.1h.05a3.53 3.53 0 0 0 3.33 1.93c2.66 0 4.36-2.09 4.36-5.47 0-3.4-1.71-5.49-4.4-5.49a3.6 3.6 0 0 0-3.35 2.02h-.05v-.76c0-.83-.5-1.29-1.22-1.29-.7 0-1.2.46-1.2 1.29v12c0 .84.5 1.3 1.23 1.3ZM58.8 17c-1.55 0-2.59-1.35-2.6-3.43.01-2.06 1.05-3.43 2.6-3.43 1.6 0 2.61 1.34 2.61 3.43 0 2.1-1 3.43-2.61 3.43Zm8 5.65c.74 0 1.26-.47 1.26-1.31V17.1h.05a3.53 3.53 0 0 0 3.32 1.93c2.66 0 4.36-2.09 4.36-5.47 0-3.4-1.7-5.49-4.4-5.49-1.54 0-2.74.78-3.34 2.02H68v-.76c0-.83-.51-1.29-1.23-1.29-.7 0-1.2.46-1.2 1.29v12c0 .84.5 1.3 1.23 1.3ZM70.63 17c-1.55 0-2.58-1.35-2.6-3.43.02-2.06 1.05-3.43 2.6-3.43 1.61 0 2.61 1.34 2.61 3.43 0 2.1-1 3.43-2.61 3.43Zm8.09 2.07c.73 0 1.24-.47 1.24-1.3V5.53c0-.84-.51-1.31-1.24-1.31s-1.25.47-1.25 1.31v12.22c0 .84.52 1.31 1.25 1.31Zm8.08.01c2.02 0 3.6-.79 4.3-2.14.1-.22.17-.44.17-.63 0-.6-.44-.96-1-.96-.35 0-.58.11-.84.4-.8 1.02-1.53 1.41-2.66 1.41-1.62 0-2.65-1.14-2.65-2.91v-.08h6.26c.74 0 1.16-.44 1.16-1.18 0-2.88-1.98-4.95-4.89-4.95-3.06 0-5.01 2.19-5.01 5.57 0 3.44 1.91 5.47 5.15 5.47Zm-2.66-6.55c.1-1.52 1.12-2.55 2.52-2.55s2.39 1 2.44 2.55h-4.96Zm17.6 6.51c.81 0 1.27-.38 1.51-1.28l2.67-9.34h.1l2.68 9.34c.25.91.69 1.28 1.52 1.28.79 0 1.23-.39 1.47-1.28l3.21-11.52c.1-.33.13-.6.13-.82 0-.7-.5-1.16-1.27-1.16-.67 0-1.09.36-1.25 1.08l-2.41 10.03h-.08l-2.66-9.92c-.22-.8-.65-1.19-1.38-1.19-.76 0-1.18.36-1.4 1.22l-2.65 9.9h-.08L99.44 5.33c-.16-.7-.58-1.08-1.25-1.08-.78 0-1.28.45-1.28 1.16 0 .23.04.5.13.82l3.2 11.51c.26.9.7 1.3 1.5 1.3Zm16.29-12.27c.79 0 1.4-.6 1.4-1.35 0-.76-.61-1.35-1.4-1.35a1.35 1.35 0 1 0 0 2.7Zm0 12.3c.77 0 1.26-.5 1.26-1.3v-8.4c0-.8-.5-1.32-1.26-1.32s-1.24.51-1.24 1.32v8.4c0 .8.48 1.3 1.24 1.3Zm4.67 0c.73 0 1.24-.47 1.24-1.3v-2.54l.94-.88 3.19 4.03c.36.52.65.7 1.14.7.69 0 1.18-.47 1.18-1.12 0-.32-.08-.54-.34-.9l-3.33-4.15 3.03-2.86c.34-.32.45-.55.45-.93 0-.6-.47-1.07-1.1-1.07-.38 0-.64.14-.97.48l-4.16 4.12h-.03v-7.1c0-.85-.51-1.32-1.24-1.32s-1.25.47-1.25 1.31v12.22c0 .84.52 1.31 1.25 1.31Zm10.61-12.3c.78 0 1.4-.6 1.4-1.35 0-.76-.62-1.35-1.4-1.35a1.35 1.35 0 1 0 0 2.7Zm0 12.3c.76 0 1.25-.5 1.25-1.3v-8.4c0-.8-.49-1.32-1.25-1.32s-1.24.51-1.24 1.32v8.4c0 .8.48 1.3 1.24 1.3Z"/></svg>
