<svg xmlns="http://www.w3.org/2000/svg" xmlns:xlink="http://www.w3.org/1999/xlink" fill="none" viewBox="0 0 100 100"><linearGradient id="a"><stop offset=".27" stop-color="#82aec0"/><stop offset="1" stop-color="#82aec0" stop-opacity="0"/></linearGradient><linearGradient xlink:href="#a" id="c" x1="93.98" x2="94.18" y1="69.99" y2="55.7" gradientUnits="userSpaceOnUse"/><linearGradient id="b"><stop offset="0" stop-color="#2f7889"/><stop offset="1" stop-color="#82aec0"/></linearGradient><linearGradient xlink:href="#b" id="d" x1="54.89" x2="90.25" y1="67.01" y2="67.01" gradientUnits="userSpaceOnUse"/><linearGradient xlink:href="#b" id="e" x1="45.03" x2="9.74" y1="67.01" y2="67.01" gradientUnits="userSpaceOnUse"/><linearGradient xlink:href="#a" id="f" x1="6.01" x2="5.82" y1="69.99" y2="55.7" gradientUnits="userSpaceOnUse"/><path fill="#c62828" d="m55.15 80.39 40.1 3.81c3.78.37 4.75-1.74 4.75-3.52l-.04-2.17-49.32-6.95c0 2.47 2 8.83 4.51 8.83z"/><path fill="#f44336" d="m56.62 78.5 6.3.56 33.8 3.26a3.25 3.25 0 0 0 3.28-3.23l-1.8-54.73a3.25 3.25 0 0 0-3.27-3.23L56.62 17.5a4.52 4.52 0 0 0-4.55 4.48v52.04a4.5 4.5 0 0 0 4.55 4.47z"/><path fill="#c62828" d="M44.85 80.39 4.75 84.2C.96 84.57 0 82.46 0 80.68l.04-2.17 49.32-6.96c0 2.48-2 8.84-4.51 8.84z"/><path fill="#f44336" d="m43.38 78.5-6.26.56-33.84 3.27A3.25 3.25 0 0 1 0 79.1l1.8-54.74a3.25 3.25 0 0 1 3.27-3.23l38.31-3.61a4.52 4.52 0 0 1 4.55 4.47v52.04a4.5 4.5 0 0 1-4.55 4.47z"/><path fill="#424242" d="M62.18 66.25H37.83l-.74 12.83 7.6.71s1.63 4.07 5.31 4.07 5.31-4.07 5.31-4.07l7.6-.7z"/><path fill="#616161" d="m62.75 81.11-7.08-.6.18-2.06 7.08.61zm-25.68-2.05 7.08-.61.18 2.06-7.08.6z"/><path fill="#94c6d6" d="m95.97 24.24-3.3-4.54L50 68.19 7.34 19.69l-3.3 4.55-.47 53.98s8.77 1.1 20.5-.09c10.2-1.03 15.01-3.67 18.42-2.99 4.1.83 4.84 3.35 4.97 3.78.38 1.19 1.11 2.11 2.54 2.11s2.07-.5 2.5-1.97c.14-.42.91-3.08 5-3.91 3.42-.69 8.23 1.96 18.44 2.99 11.72 1.19 20.5.09 20.5.09z"/><path fill="url(#c)" d="m91.55 73.02.13-21.8h4.52l.23 27s-3.6-1.4-4.88-5.2z"/><path fill="url(#d)" d="m91.76 60.31-.21 12.72s-9.88-.52-25.62-3.24C55.64 68 50 73.72 50 73.72l-.1-13.4z"/><path fill="url(#e)" d="m8.24 60.31.21 12.72s9.88-.52 25.62-3.24C44.36 68 50 73.72 50 73.72l-.1-13.4z"/><path fill="url(#f)" d="m8.45 73.02-.13-21.8H3.79l-.22 27s3.58-1.4 4.88-5.2z"/><path fill="#f5f5f5" d="M92.66 19.7s-21.92-4.12-31.54-4.66c-9.05-.5-10.91 4.1-11.1 4.66H50c-.19-.56-2.05-5.16-11.1-4.66-9.62.54-31.55 4.66-31.55 4.66l-.97 53.2s26.1-5.47 32.42-4.76c6.32.7 11.21 5.58 11.21 5.58s4.9-4.87 11.22-5.58 32.42 4.75 32.42 4.75z"/><path fill="#94c6d6" d="m41.43 15.05-4.46 53.03c.7-.02 1.32 0 1.81.06 6.31.7 11.22 5.58 11.22 5.58l-.14-54.02s-1.07-4.23-8.43-4.65z" opacity=".26"/><path fill="#757575" d="m18.04 22.06-5.1.9v1.68l5.1-.91zm20.1-2.66v1.64c4.4 0 6.85 1.1 7.65 1.55v-1.84c-1.36-.6-3.85-1.36-7.64-1.35zm-3.58.2a230.6 230.6 0 0 0-12.93 1.86v1.67a245.6 245.6 0 0 1 12.93-1.86zm-8.8 7.14c-4.28.67-8.56 1.4-12.83 2.17v1.67a527.4 527.4 0 0 1 12.83-2.18zm9.94-1.3c-1.74.15-3.96.43-6.35.76v1.67c2.44-.35 4.72-.63 6.48-.78 5.93-.49 9.07.97 9.94 1.46v-1.84c-1.62-.72-4.86-1.7-10.07-1.26zM18.92 33.8c-2.6.44-4.79.83-6 1.06v1.67c1.09-.2 3.3-.6 6-1.06zm26.85-1.12c-1.61-.72-4.86-1.72-10.12-1.28-3.36.27-8.5 1.04-13.14 1.8v1.68a199 199 0 0 1 13.28-1.83c6.03-.5 9.17 1.02 9.98 1.5zm0 5.97c-1.59-.72-4.86-1.74-10.15-1.3l-1.73.16v1.67c.67-.08 1.3-.14 1.87-.19 6.14-.5 9.28 1.08 10.03 1.52zm-15.47-.69c-5.8.83-11.6 1.78-17.36 2.83v1.68a450.5 450.5 0 0 1 17.36-2.85zm-9.83 7.47c-3.25.54-6.06 1.05-7.53 1.31v1.68c1.33-.25 4.18-.76 7.53-1.32zm25.32-.8c-1.58-.72-4.87-1.76-10.21-1.32-2.98.24-7.34.86-11.52 1.53v1.67c4.22-.68 8.66-1.31 11.65-1.56 6.3-.52 9.45 1.16 10.08 1.54zm.01 11.96c-1.5-.72-4.75-1.8-10.12-1.4v1.66c6.84-.55 9.95 1.5 10.12 1.62zm-26.88.99-5.97 1.05v1.68c2-.37 3.98-.72 5.97-1.06zm3.59-.6v1.68c3.19-.53 6.38-1 9.58-1.42v-1.67c-2.91.37-6.36.89-9.58 1.41zm5.74 5.06c-5.11.76-10.2 1.6-15.29 2.54v1.67c2.47-.45 9.24-1.66 15.29-2.54zm17.56.53c-1.5-.73-4.82-1.86-10.37-1.4-1.05.08-2.27.22-3.6.38v1.66c1.37-.17 2.65-.31 3.73-.4 7.07-.59 10.18 1.6 10.2 1.63l.05-.05zM27.02 50.33c-4.7.71-9.4 1.5-14.08 2.36v1.68c2.22-.4 8.3-1.5 14.08-2.37zm18.78.28c-1.56-.73-4.85-1.8-10.27-1.36-1.39.12-3.08.32-4.92.56v1.67c1.9-.25 3.64-.46 5.06-.58 6.5-.53 9.65 1.28 10.13 1.58zm24.36-28.94c6.84.91 15.78 2.53 18.2 2.97v-1.68A434.9 434.9 0 0 0 70.16 20v1.67zm-3.59-2.08-1.02-.1c-5.17-.42-8.41.55-10.04 1.26v1.84c.93-.51 4.06-1.93 9.91-1.45l1.15.11zm15.12 9.82c2.23.38 4.46.78 6.69 1.18v-1.67c-2.23-.41-4.46-.8-6.7-1.18zm-3.59-2.27c-4.14-.7-8.31-1.27-12.5-1.7-5.2-.42-8.45.55-10.07 1.27v1.84c.87-.5 4-1.95 9.93-1.46 3.23.26 8.13 1 12.63 1.72v-1.67zm-.7 5.83v1.67c4.8.77 9.28 1.58 10.98 1.9v-1.69a626.2 626.2 0 0 0-10.97-1.88zm-7.24 4.88c-1.49-.2-2.98-.36-4.47-.5-5.3-.43-8.57.59-10.16 1.31v1.86c.74-.44 3.89-2.02 10.02-1.52 1.3.1 2.9.3 4.6.52zm3.59.5v1.68c4.88.74 9.76 1.56 14.62 2.45V40.8c-4.86-.89-9.74-1.7-14.62-2.44zm.73 6.06c-3.27-.5-6.43-.91-8.74-1.1-5.36-.44-8.64.6-10.21 1.33v1.86c.62-.39 3.77-2.06 10.07-1.54 2.34.19 5.57.63 8.88 1.13V44.4zm3.58.56v1.68c4.5.73 8.6 1.47 10.3 1.78v-1.68c-1.88-.35-5.93-1.07-10.3-1.78zm5.84 6.93v1.67c1.95.34 3.54.63 4.45.8v-1.68zm-13 3.89a100 100 0 0 0-5.07-.58c-5.49-.46-8.8.65-10.32 1.38v1.88c.17-.12 3.3-2.19 10.2-1.62 1.45.12 3.25.33 5.2.6v-1.66zm3.58.5v1.68c5.68.86 11.64 1.93 13.87 2.34v-1.68c-2.48-.45-8.32-1.49-13.87-2.33zm2.93 6.41a172.7 172.7 0 0 0-11.54-1.54c-5.56-.46-8.88.68-10.38 1.4v1.82l.04.05c.03-.02 3.14-2.22 10.21-1.63 3 .25 7.46.9 11.68 1.57V62.7zm3.6.6v1.67c3.2.54 5.95 1.03 7.33 1.3v-1.69c-1.5-.28-4.22-.76-7.34-1.28zM65.63 49.24c-5.34-.42-8.6.65-10.13 1.37v1.87c.48-.3 3.62-2.11 10.13-1.58zm3.59.38v1.66c3.4.43 7.5 1.08 11.09 1.67v-1.67c-3.62-.6-7.71-1.23-11.09-1.66zM62.99 31.3c-3.7.03-6.14.79-7.46 1.38v1.85c.7-.4 3.07-1.54 7.46-1.58zm3.58.18v1.67c2.06.2 4.61.55 7.24.94v-1.67c-2.64-.4-5.18-.74-7.24-.94z" opacity=".5"/><path fill="#616161" d="M55.91 78.45a2 2 0 0 0-2.07 1.37c-.45 1.35-1.49 3.11-3.84 3.11-2.38 0-3.43-1.77-3.88-3.11a2 2 0 0 0-2.05-1.36l-.32.03v.26a6.23 6.23 0 1 0 12.47-.27z"/></svg>
