<svg xmlns="http://www.w3.org/2000/svg" fill="none" width="179px" height="32px" viewBox="0 0 179 32"><path fill="#C62828" d="m17.65 25.72 12.83 1.22c1.21.12 1.52-.55 1.52-1.12l-.01-.7L16.2 22.9c0 .79.65 2.82 1.45 2.82Z"/><path fill="#F44336" d="m18.12 25.12 2.02.18 10.81 1.04c.58 0 1.05-.46 1.05-1.03l-.57-17.52a1.04 1.04 0 0 0-1.05-1.03L18.12 5.6a1.45 1.45 0 0 0-1.46 1.44v16.65a1.44 1.44 0 0 0 1.46 1.43Z"/><path fill="#C62828" d="M14.35 25.72 1.52 26.94C.3 27.06 0 26.4 0 25.82l.01-.7L15.8 22.9c0 .79-.65 2.82-1.45 2.82Z"/><path fill="#F44336" d="m13.88 25.12-2 .18-10.83 1.04A1.04 1.04 0 0 1 0 25.31L.57 7.8a1.04 1.04 0 0 1 1.05-1.04l12.26-1.15a1.45 1.45 0 0 1 1.46 1.43v16.65a1.45 1.45 0 0 1-1.46 1.43Z"/><path fill="#424242" d="M19.9 21.2h-7.8l-.23 4.1 2.43.23s.52 1.3 1.7 1.3 1.7-1.3 1.7-1.3l2.43-.22-.23-4.1Z"/><path fill="#616161" d="m20.08 25.96-2.27-.2.06-.66 2.27.2-.06.66Zm-8.22-.66 2.27-.2.06.66-2.27.2-.06-.66Z"/><path fill="#94C6D6" d="M30.71 7.76 29.65 6.3 16 21.82 2.35 6.3 1.29 7.76l-.15 17.27s2.8.35 6.56-.03c3.27-.33 4.8-1.17 5.9-.95 1.3.26 1.55 1.07 1.59 1.2.12.38.35.68.81.68.46 0 .66-.16.8-.63.04-.14.3-.99 1.6-1.25 1.1-.22 2.63.62 5.9.95 3.75.39 6.56.03 6.56.03L30.7 7.76Z"/><path fill="url(#a)" d="m29.3 23.37.04-6.98h1.44l.08 8.64s-1.15-.45-1.56-1.66Z"/><path fill="url(#b)" d="m29.36 19.3-.06 4.07s-3.17-.17-8.2-1.04c-3.3-.57-5.1 1.26-5.1 1.26l-.03-4.29h13.4Z"/><path fill="url(#c)" d="m2.64 19.3.06 4.07s3.17-.17 8.2-1.04c3.3-.57 5.1 1.26 5.1 1.26l-.03-4.29H2.64Z"/><path fill="url(#d)" d="m2.7 23.37-.04-6.98H1.21l-.07 8.64s1.15-.45 1.56-1.66Z"/><path fill="#F5F5F5" d="M29.65 6.3s-7.01-1.32-10.1-1.49c-2.89-.16-3.48 1.32-3.54 1.5H16c-.06-.18-.66-1.66-3.56-1.5-3.07.17-10.09 1.5-10.09 1.5l-.31 17.02s8.35-1.75 10.37-1.53c2.03.23 3.59 1.79 3.59 1.79s1.57-1.56 3.59-1.79c2.02-.22 10.37 1.53 10.37 1.53l-.3-17.03Z"/><path fill="#94C6D6" d="M13.26 4.81 11.83 21.8c.22-.01.42 0 .58.01A6.86 6.86 0 0 1 16 23.6l-.04-17.3s-.35-1.35-2.7-1.49Z" opacity=".26"/><path fill="#757575" d="m5.77 7.06-1.63.29v.53l1.63-.29v-.53Zm6.44-.85v.52c1.4 0 2.19.36 2.44.5v-.59a6 6 0 0 0-2.44-.43Zm-1.15.06c-1.14.12-2.74.36-4.14.6v.53c1.4-.23 2.99-.47 4.14-.6v-.53ZM8.24 8.56c-1.37.21-2.74.44-4.1.69v.54c.6-.11 2.35-.43 4.1-.7v-.53Zm3.18-.42c-.55.05-1.26.14-2.03.24v.54c.78-.11 1.51-.2 2.08-.25 1.9-.16 2.9.3 3.18.47v-.6a6.6 6.6 0 0 0-3.23-.4Zm-5.36 2.68-1.92.33v.54l1.92-.34v-.53Zm8.59-.36a6.54 6.54 0 0 0-3.24-.41c-1.08.09-2.72.33-4.2.57v.54c1.49-.24 3.16-.5 4.24-.58 1.93-.16 2.94.32 3.2.47v-.6Zm0 1.9a6.54 6.54 0 0 0-3.25-.4c-.17 0-.36.02-.55.04v.54l.6-.06c1.96-.16 2.96.34 3.2.48v-.6.01Zm-4.95-.21c-1.86.26-3.71.57-5.56.9v.54c1.85-.34 3.7-.64 5.56-.91v-.53Zm-3.15 2.39c-1.04.17-1.94.33-2.41.42v.53l2.41-.42v-.53Zm8.1-.26a6.53 6.53 0 0 0-3.27-.42c-.95.08-2.34.28-3.68.49v.53a60.9 60.9 0 0 1 3.73-.5c2.01-.16 3.02.38 3.22.5v-.6Zm0 3.83a6.41 6.41 0 0 0-3.23-.45v.53c2.19-.17 3.18.48 3.24.52v-.6Zm-8.6.32-1.9.33v.54l1.9-.34v-.53Zm1.15-.2v.54c1.02-.17 2.04-.32 3.07-.45v-.54c-.93.12-2.04.29-3.07.46Zm1.84 1.62c-1.64.25-3.27.52-4.9.81v.54c.8-.14 2.97-.53 4.9-.81v-.54Zm5.62.17a6.42 6.42 0 0 0-3.32-.45c-.34.03-.73.07-1.15.13v.53a30 30 0 0 1 1.2-.13c2.25-.19 3.25.51 3.26.52l.01-.02v-.58ZM8.65 16.1c-1.5.23-3.01.49-4.5.76v.54c.7-.13 2.65-.48 4.5-.76v-.54Zm6 .1a6.49 6.49 0 0 0-3.28-.44c-.45.04-.99.1-1.57.18v.53c.6-.08 1.16-.14 1.61-.18 2.09-.17 3.1.4 3.25.5v-.6Zm7.8-9.27c2.2.3 5.05.81 5.83.95v-.53c-1.94-.36-3.88-.67-5.83-.95v.53Zm-1.15-.66-.32-.03a6.6 6.6 0 0 0-3.22.4v.59c.3-.17 1.3-.62 3.18-.46l.36.03v-.53Zm4.84 3.14 2.14.38v-.54l-2.14-.37v.53Zm-1.15-.73c-1.32-.22-2.66-.4-4-.54a6.61 6.61 0 0 0-3.22.4v.6c.28-.16 1.28-.63 3.18-.47 1.03.08 2.6.32 4.04.55v-.54Zm-.22 1.87v.53c1.54.25 2.97.51 3.51.61v-.54c-.62-.1-2.02-.36-3.51-.6Zm-2.32 1.56-1.43-.16a6.53 6.53 0 0 0-3.25.42v.6c.24-.14 1.24-.65 3.2-.49.43.03.93.1 1.48.17v-.54Zm1.15.16v.54c1.56.24 3.12.5 4.68.78v-.53c-1.56-.29-3.12-.55-4.68-.79Zm.23 1.94c-1.04-.16-2.05-.3-2.8-.35a6.52 6.52 0 0 0-3.26.42v.6c.2-.12 1.2-.66 3.22-.5.75.07 1.78.2 2.84.37v-.54Zm1.15.18v.54c1.44.23 2.75.47 3.3.57v-.54c-.6-.11-1.9-.34-3.3-.57Zm1.87 2.22v.53l1.42.26v-.54l-1.42-.25Zm-4.17 1.24c-.6-.08-1.16-.15-1.62-.18a6.43 6.43 0 0 0-3.3.44v.6c.06-.04 1.06-.7 3.26-.52.47.04 1.05.1 1.67.2v-.54Zm1.15.17v.53c1.82.27 3.73.62 4.44.75v-.54c-.79-.14-2.66-.47-4.44-.74Zm.94 2.04c-1.22-.2-2.46-.37-3.7-.49a6.44 6.44 0 0 0-3.31.45v.58l.01.02s1-.71 3.27-.52c.96.08 2.38.28 3.74.5v-.54h-.01Zm1.15.2v.53l2.35.41v-.53c-.48-.1-1.35-.25-2.35-.42ZM21 15.75c-1.7-.14-2.75.2-3.24.43v.6c.16-.1 1.16-.67 3.24-.5v-.53Zm1.15.12v.53c1.1.14 2.4.34 3.55.54v-.54c-1.16-.2-2.47-.4-3.55-.53Zm-2-5.86c-1.18 0-1.96.25-2.38.44v.59c.22-.13.98-.5 2.39-.5v-.53Zm1.15.06v.53c.66.06 1.48.17 2.32.3v-.54c-.85-.12-1.66-.23-2.32-.3Z" opacity=".5"/><path fill="#616161" d="M17.9 25.1a.64.64 0 0 0-.67.44c-.14.43-.48 1-1.23 1-.76 0-1.1-.57-1.24-1a.64.64 0 0 0-.66-.43H14v.09a2 2 0 1 0 3.99-.09h-.1Z"/><path fill="#000" d="M49.77 23.22c.8 0 1.29-.49 1.29-1.34V10.8h3.3c.7 0 1.18-.42 1.18-1.09 0-.67-.47-1.09-1.18-1.09h-9.18c-.7 0-1.18.42-1.18 1.1 0 .66.48 1.08 1.18 1.08h3.3v11.1c0 .84.48 1.33 1.29 1.33Zm8.44.03c.73 0 1.25-.47 1.25-1.3v-5c0-1.55.9-2.6 2.4-2.6 1.45 0 2.19.9 2.19 2.38v5.21c0 .84.51 1.31 1.24 1.31s1.25-.47 1.25-1.3v-5.73c0-2.43-1.37-3.98-3.71-3.98-1.61 0-2.78.73-3.35 2.03h-.05V9.69c0-.79-.47-1.28-1.24-1.28-.76 0-1.23.5-1.23 1.28v12.25c0 .84.52 1.31 1.25 1.31Zm15.05.01c2.02 0 3.6-.79 4.3-2.14.11-.22.17-.44.17-.63 0-.6-.44-.96-1-.96-.35 0-.58.11-.84.4-.8 1.02-1.53 1.41-2.65 1.41-1.62 0-2.65-1.14-2.65-2.91v-.08h6.25c.74 0 1.16-.44 1.16-1.18 0-2.88-1.98-4.95-4.88-4.95-3.06 0-5.02 2.19-5.02 5.57 0 3.44 1.92 5.47 5.16 5.47Zm-2.65-6.55c.1-1.52 1.12-2.55 2.52-2.55s2.38 1 2.43 2.55h-4.95Zm13.99 6.51c.67 0 1.05-.33 1.3-1.1l.94-2.75h5.4l.95 2.76c.23.77.62 1.1 1.32 1.1.75 0 1.29-.5 1.29-1.2 0-.23-.05-.46-.17-.79l-4.2-11.4c-.36-.98-.94-1.4-1.9-1.4-.94 0-1.52.44-1.87 1.4l-4.2 11.4c-.11.31-.16.6-.16.8 0 .72.5 1.18 1.3 1.18Zm2.85-5.9 2.03-6.16h.07l2.06 6.17h-4.16Zm11.22 9.51c.73 0 1.25-.47 1.25-1.31v-4.23h.05a3.53 3.53 0 0 0 3.33 1.93c2.66 0 4.36-2.09 4.36-5.47 0-3.4-1.71-5.49-4.4-5.49-1.54 0-2.75.78-3.35 2.02h-.05v-.76c0-.83-.5-1.29-1.22-1.29-.7 0-1.2.46-1.2 1.29v12c0 .84.5 1.3 1.23 1.3Zm3.83-5.65c-1.55 0-2.59-1.35-2.6-3.43.01-2.06 1.05-3.43 2.6-3.43 1.6 0 2.61 1.34 2.61 3.43 0 2.1-1 3.43-2.61 3.43Zm8 5.65c.74 0 1.26-.47 1.26-1.31v-4.23h.05a3.53 3.53 0 0 0 3.32 1.93c2.66 0 4.36-2.09 4.36-5.47 0-3.4-1.7-5.49-4.4-5.49-1.54 0-2.74.78-3.34 2.02h-.05v-.76c0-.83-.51-1.29-1.23-1.29-.7 0-1.2.46-1.2 1.29v12c0 .84.5 1.3 1.23 1.3Zm3.83-5.65c-1.55 0-2.58-1.35-2.6-3.43.02-2.06 1.05-3.43 2.6-3.43 1.61 0 2.61 1.34 2.61 3.43 0 2.1-1 3.43-2.61 3.43Zm8.09 2.07c.73 0 1.24-.47 1.24-1.3V9.71c0-.84-.51-1.31-1.24-1.31s-1.25.47-1.25 1.31v12.22c0 .84.52 1.31 1.25 1.31Zm8.08.01c2.02 0 3.6-.79 4.3-2.14.1-.22.17-.44.17-.63 0-.6-.44-.96-1-.96-.35 0-.58.11-.84.4-.8 1.02-1.53 1.41-2.66 1.41-1.62 0-2.65-1.14-2.65-2.91v-.08h6.26c.74 0 1.16-.44 1.16-1.18 0-2.88-1.98-4.95-4.89-4.95-3.06 0-5.01 2.19-5.01 5.57 0 3.44 1.91 5.47 5.15 5.47Zm-2.66-6.55c.1-1.52 1.12-2.55 2.52-2.55s2.39 1 2.44 2.55h-4.96Zm17.6 6.51c.81 0 1.27-.38 1.51-1.28l2.67-9.34h.1l2.68 9.34c.25.91.69 1.28 1.52 1.28.79 0 1.23-.39 1.47-1.28l3.21-11.52c.1-.33.13-.6.13-.82 0-.7-.5-1.16-1.27-1.16-.67 0-1.09.36-1.25 1.08l-2.41 10.03h-.08l-2.66-9.92c-.22-.8-.65-1.19-1.38-1.19-.76 0-1.18.36-1.4 1.22l-2.65 9.9h-.08l-2.41-10.04c-.16-.7-.58-1.08-1.25-1.08-.77 0-1.28.45-1.28 1.16 0 .23.04.5.13.82l3.2 11.51c.26.9.7 1.3 1.5 1.3Zm16.3-12.27c.78 0 1.39-.6 1.39-1.35 0-.76-.61-1.35-1.4-1.35a1.35 1.35 0 1 0 0 2.7Zm0 12.3c.76 0 1.25-.5 1.25-1.3v-8.4c0-.8-.5-1.32-1.25-1.32-.77 0-1.25.51-1.25 1.32v8.4c0 .8.48 1.3 1.25 1.3Zm4.66 0c.73 0 1.24-.47 1.24-1.3V19.4l.94-.88 3.18 4.03c.37.52.66.7 1.15.7.69 0 1.18-.47 1.18-1.12 0-.32-.08-.54-.34-.9l-3.33-4.15 3.03-2.86c.34-.32.45-.55.45-.93 0-.6-.47-1.07-1.1-1.07-.38 0-.65.14-.97.48l-4.16 4.12h-.03v-7.1c0-.85-.51-1.32-1.24-1.32s-1.25.47-1.25 1.31v12.22c0 .84.52 1.31 1.25 1.31Zm10.61-12.3c.78 0 1.4-.6 1.4-1.35 0-.76-.62-1.35-1.4-1.35a1.35 1.35 0 1 0 0 2.7Zm0 12.3c.76 0 1.25-.5 1.25-1.3v-8.4c0-.8-.49-1.32-1.25-1.32s-1.24.51-1.24 1.32v8.4c0 .8.48 1.3 1.24 1.3Z"/><defs><linearGradient id="a" x1="30.07" x2="30.14" y1="22.4" y2="17.82" gradientUnits="userSpaceOnUse"><stop offset=".27" stop-color="#82AEC0"/><stop offset="1" stop-color="#82AEC0" stop-opacity="0"/></linearGradient><linearGradient id="b" x1="17.56" x2="28.88" y1="21.44" y2="21.44" gradientUnits="userSpaceOnUse"><stop stop-color="#2F7889"/><stop offset="1" stop-color="#82AEC0"/></linearGradient><linearGradient id="c" x1="14.41" x2="3.12" y1="21.44" y2="21.44" gradientUnits="userSpaceOnUse"><stop stop-color="#2F7889"/><stop offset="1" stop-color="#82AEC0"/></linearGradient><linearGradient id="d" x1="1.92" x2="1.86" y1="22.4" y2="17.82" gradientUnits="userSpaceOnUse"><stop offset=".27" stop-color="#82AEC0"/><stop offset="1" stop-color="#82AEC0" stop-opacity="0"/></linearGradient></defs></svg>
