<svg xmlns="http://www.w3.org/2000/svg" viewBox="0 0 128 128"><defs><linearGradient id="a" x1="-117.24" x2="-117.49" y1="88.2" y2="70.9" gradientTransform="scale(-1 1)" gradientUnits="userSpaceOnUse"><stop offset=".27" stop-color="#82AEC0"/><stop offset="1" stop-color="#82AEC0" stop-opacity="0"/></linearGradient><linearGradient id="b" x1="-69.92" x2="-112.73" y1="84.6" y2="84.6" gradientTransform="scale(-1 1)" gradientUnits="userSpaceOnUse"><stop offset="0" stop-color="#2F7889"/><stop offset="1" stop-color="#82AEC0"/></linearGradient><linearGradient id="c" x1="57.98" x2="15.26" y1="84.6" y2="84.6" gradientUnits="userSpaceOnUse"><stop offset="0" stop-color="#2F7889"/><stop offset="1" stop-color="#82AEC0"/></linearGradient><linearGradient id="d" x1="10.75" x2="10.51" y1="88.2" y2="70.9" gradientUnits="userSpaceOnUse"><stop offset=".27" stop-color="#82AEC0"/><stop offset="1" stop-color="#82AEC0" stop-opacity="0"/></linearGradient></defs><path fill="#C62828" d="m70.24 100.79 48.55 4.62c4.57.44 5.74-2.11 5.74-4.27l-.05-2.62-59.71-8.42c0 2.99 2.43 10.69 5.47 10.69Z"/><path fill="#F44336" d="m72.01 98.51 7.64.67 40.91 3.95c2.2 0 3.97-1.75 3.97-3.91l-2.17-66.26a3.94 3.94 0 0 0-3.97-3.91l-46.38-4.38a5.47 5.47 0 0 0-5.51 5.42v63a5.46 5.46 0 0 0 5.51 5.42Z"/><path fill="#C62828" d="m57.76 100.79-48.55 4.62c-4.57.44-5.74-2.11-5.74-4.27l.05-2.62 59.71-8.43c0 3-2.43 10.7-5.47 10.7Z"/><path fill="#F44336" d="m55.99 98.51-7.58.67-40.97 3.96a3.94 3.94 0 0 1-3.97-3.91l2.17-66.26a3.94 3.94 0 0 1 3.97-3.91l46.38-4.38a5.47 5.47 0 0 1 5.51 5.42v63a5.46 5.46 0 0 1-5.51 5.41Z"/><path fill="#424242" d="M78.75 83.68H49.27l-.9 15.53 9.2.86s1.97 4.92 6.43 4.92 6.43-4.92 6.43-4.92l9.2-.86-.88-15.53Z"/><path fill="#616161" d="m79.43 101.67-8.57-.73.22-2.5 8.57.75-.22 2.48Zm-31.08-2.48 8.57-.75.22 2.5-8.57.73-.22-2.48Z"/><path fill="#94C6D6" d="m119.65 32.82-4-5.5L64 86.02l-51.65-58.7-4 5.5-.56 65.35s10.62 1.33 24.81-.11c12.36-1.25 18.18-4.45 22.31-3.62 4.96 1 5.86 4.05 6.02 4.57.45 1.44 1.34 2.56 3.07 2.56 1.73 0 2.5-.6 3.03-2.38.16-.52 1.1-3.74 6.06-4.74 4.13-.83 9.95 2.37 22.31 3.62 14.19 1.44 24.81.11 24.81.11l-.56-65.36Z"/><path fill="url(#a)" d="m114.3 91.87.16-26.39h5.47l.28 32.69s-4.35-1.69-5.91-6.3Z"/><path fill="url(#b)" d="m114.55 76.49-.25 15.39s-11.96-.62-31.01-3.92C70.83 85.8 64 92.72 64 92.72l-.11-16.23h50.66Z"/><path fill="url(#c)" d="m13.45 76.49.25 15.39s11.96-.62 31.01-3.92C57.17 85.8 64 92.72 64 92.72l-.11-16.23H13.45Z"/><path fill="url(#d)" d="m13.7 91.87-.16-26.39H8.06l-.27 32.69s4.34-1.69 5.91-6.3Z"/><path fill="#F5F5F5" d="M115.65 27.32s-26.54-4.99-38.19-5.64c-10.96-.61-13.21 4.97-13.43 5.64h-.04c-.23-.67-2.48-6.24-13.44-5.64-11.65.65-38.19 5.64-38.19 5.64l-1.18 64.4s31.6-6.62 39.25-5.76c7.65.86 13.57 6.76 13.57 6.76v-.01.01s5.93-5.9 13.58-6.76c7.65-.86 39.25 5.76 39.25 5.76l-1.18-64.4Z"/><path fill="#94C6D6" d="m53.62 21.69-5.4 64.2c.85-.02 1.6 0 2.2.07 7.64.85 13.58 6.76 13.58 6.76l-.17-65.4s-1.3-5.12-10.21-5.63Z" opacity=".26"/><path fill="#757575" d="m25.31 30.18-6.17 1.09-.01 2.03c1.11-.2 3.37-.61 6.18-1.1v-2.02Zm24.34-3.22v1.99c5.33-.01 8.28 1.33 9.25 1.87l.01-2.22c-1.65-.74-4.67-1.65-9.26-1.64Zm-4.34.25c-4.33.44-10.36 1.36-15.66 2.24v2.03c5.26-.87 11.3-1.8 15.66-2.26v-2.01Zm-10.65 8.63a657.9 657.9 0 0 0-15.54 2.63v2.03c2.26-.41 8.89-1.61 15.54-2.64v-2.02Zm12.03-1.56c-2.11.17-4.8.51-7.69.91v2.02c2.95-.42 5.71-.76 7.85-.94 7.18-.59 10.97 1.17 12.03 1.77v-2.23c-1.96-.87-5.89-2.05-12.19-1.53ZM26.38 44.39c-3.16.54-5.8 1.01-7.26 1.28v2.03c1.31-.24 3.99-.72 7.26-1.28v-2.03Zm32.5-1.35c-1.95-.88-5.89-2.08-12.25-1.55-4.07.33-10.3 1.26-15.91 2.18v2.03c5.66-.93 11.98-1.87 16.08-2.21 7.3-.6 11.1 1.23 12.08 1.8v-2.25Zm.01 7.23c-1.93-.88-5.89-2.11-12.3-1.58-.65.05-1.35.12-2.09.2v2.01c.81-.09 1.56-.16 2.26-.22 7.44-.61 11.24 1.3 12.14 1.84l-.01-2.25Zm-18.74-.84a551.03 551.03 0 0 0-21.02 3.43v2.03a545.4 545.4 0 0 1 21.02-3.45v-2.01Zm-11.9 9.04c-3.93.66-7.33 1.27-9.12 1.59v2.03c1.62-.3 5.07-.92 9.12-1.6v-2.02Zm30.65-.96c-1.91-.88-5.89-2.14-12.36-1.61-3.6.3-8.88 1.05-13.94 1.86v2.02c5.11-.82 10.48-1.59 14.1-1.89 7.63-.63 11.44 1.41 12.2 1.87v-2.25Zm.02 14.47c-1.82-.87-5.76-2.18-12.26-1.69v2.01c8.29-.67 12.05 1.81 12.26 1.96v-2.28Zm-32.54 1.2c-3.08.53-5.7.99-7.23 1.27v2.03a755 755 0 0 1 7.23-1.28v-2.02Zm4.34-.72v2.03a353.4 353.4 0 0 1 11.6-1.72v-2.02c-3.53.44-7.7 1.07-11.6 1.71Zm6.95 6.12a579.9 579.9 0 0 0-18.51 3.07v2.03c2.99-.55 11.19-2.01 18.51-3.08v-2.02Zm21.26.64c-1.81-.88-5.84-2.25-12.56-1.7-1.27.1-2.75.27-4.36.47V80c1.67-.21 3.21-.38 4.52-.49 8.56-.71 12.32 1.95 12.36 1.97l.05-.06-.01-2.2ZM36.18 64.4a567.53 567.53 0 0 0-17.04 2.86v2.03c2.68-.49 10.05-1.81 17.04-2.87V64.4Zm22.73.34c-1.88-.88-5.87-2.18-12.43-1.64-1.68.14-3.73.38-5.95.68v2.02c2.29-.31 4.4-.56 6.12-.7 7.88-.65 11.69 1.54 12.27 1.91l-.01-2.27Zm29.5-35.03c8.28 1.1 19.1 3.06 22.04 3.59l-.01-2.03a526.5 526.5 0 0 0-22.04-3.58v2.02Zm-4.35-2.52-1.23-.11c-6.27-.52-10.19.65-12.16 1.52l.01 2.22c1.12-.62 4.91-2.33 11.99-1.75l1.39.13v-2.01Zm18.3 11.89a673 673 0 0 1 8.1 1.43v-2.03a596.1 596.1 0 0 0-8.1-1.42v2.02Zm-4.34-2.75a227.5 227.5 0 0 0-15.13-2.05c-6.3-.52-10.23.66-12.2 1.53v2.23c1.06-.6 4.85-2.36 12.03-1.77 3.91.32 9.84 1.2 15.29 2.08v-2.02Zm-.84 7.06v2.02c5.81.93 11.22 1.91 13.28 2.29v-2.03c-2.33-.42-7.64-1.37-13.28-2.28ZM88.4 49.3a112.6 112.6 0 0 0-5.41-.6c-6.41-.53-10.37.7-12.3 1.58v2.25c.9-.53 4.71-2.45 12.14-1.84 1.58.13 3.5.35 5.57.63V49.3Zm4.35.61v2.02a603.74 603.74 0 0 1 17.7 2.97v-2.03a574.13 574.13 0 0 0-17.7-2.96Zm.88 7.33c-3.95-.6-7.78-1.11-10.58-1.34-6.48-.53-10.46.73-12.36 1.61v2.26c.76-.47 4.57-2.5 12.2-1.87 2.83.23 6.74.76 10.75 1.37v-2.03Zm4.34.68v2.03c5.44.88 10.42 1.78 12.47 2.15v-2.03c-2.28-.42-7.18-1.3-12.47-2.15Zm7.07 8.38v2.03c2.36.41 4.29.76 5.39.96v-2.03l-5.39-.96Zm-15.75 4.71c-2.29-.31-4.41-.56-6.13-.7-6.64-.55-10.65.79-12.49 1.67v2.28c.21-.15 3.99-2.65 12.34-1.96 1.76.14 3.94.4 6.3.72v-2.01Zm4.34.62v2.02c6.88 1.04 14.1 2.34 16.8 2.83v-2.03c-3-.54-10.08-1.8-16.8-2.82Zm3.55 7.75a211.95 211.95 0 0 0-13.97-1.87c-6.73-.55-10.75.83-12.56 1.7v2.2l.05.06c.03-.02 3.79-2.68 12.36-1.97 3.63.3 9.02 1.08 14.14 1.9v-2.02Zm4.35.72v2.03c3.89.65 7.21 1.25 8.89 1.56v-2.03c-1.83-.34-5.11-.93-8.89-1.56Zm-18.6-17.01c-6.46-.51-10.4.78-12.26 1.65v2.27c.58-.37 4.38-2.56 12.26-1.91v-2.01Zm4.35.46v2.01c4.12.52 9.07 1.3 13.42 2.02v-2.03c-4.38-.72-9.33-1.49-13.42-2Zm-7.56-22.18c-4.48.03-7.43.95-9.02 1.67v2.24c.84-.48 3.71-1.87 9.02-1.92v-1.99Zm4.34.22v2.01c2.49.25 5.58.67 8.77 1.14v-2.02c-3.2-.48-6.28-.89-8.77-1.13Z" opacity=".5"/><path fill="#616161" d="M71.16 98.45a2.43 2.43 0 0 0-2.51 1.66c-.54 1.63-1.8 3.76-4.65 3.76-2.88 0-4.15-2.14-4.7-3.77a2.42 2.42 0 0 0-2.48-1.64l-.39.03.01.32a7.55 7.55 0 1 0 15.09-.33l-.37-.03Z"/></svg>
