<svg xmlns="http://www.w3.org/2000/svg" fill="none" viewBox="0 0 16 16"><path fill="#000" d="M10.194.277A.595.595 0 0 1 10.685 0c.277 0 .54.155.7.376.151.212.198.479.198.734-.002.36-.085.712-.184 1.056-.246.81-.58 1.59-.83 2.4-.276.92-.408 1.944-.038 2.856l.577-1.62c.055-.143.127-.305.28-.364.213-.076.43.146.424.352-.058.3-.171.585-.26.877-.72 2.166-1.528 4.302-2.305 6.448 1.034-.945 2.07-1.886 3.104-2.83.298-.27.621-.566.712-.975.091-.402-.078-.801-.27-1.147-.221-.412-.504-.804-.608-1.267-.053-.24-.037-.517.125-.713.117-.149.33-.225.51-.153.176.068.283.238.367.399a5.17 5.17 0 0 1 .517 1.807c.191-.387.386-.773.578-1.16.116-.228.219-.472.407-.652a.489.489 0 0 1 .44-.147c.202.044.343.227.397.418.061.201-.004.412-.069.604-.194.536-.498 1.021-.792 1.507-.41.644-.844 1.271-1.318 1.868.27-.18.556-.371.889-.41.314-.041.661.143.765.45.07.208-.043.444-.232.546-.277.155-.606.153-.914.167a3.895 3.895 0 0 0-2.904 1.458c-.547.7-.827 1.569-1.383 2.262-.351.423-.847.954-1.392.836-.726-.155-.726-1.29-.907-1.853a1.447 1.447 0 0 0-.51-.719 1.77 1.77 0 0 0-.724-.296c-.59-.113-1.199-.053-1.787-.175a1.703 1.703 0 0 1-.81-.382 1.786 1.786 0 0 1-.465-.703c-.222-.574-.267-1.197-.464-1.778A4.096 4.096 0 0 0 .924 8.009C.77 7.904.601 7.802.5 7.639a.348.348 0 0 1 .033-.42.542.542 0 0 1 .714-.05c.426.302.488.89.885 1.219.001-.543-.002-1.086-.003-1.628.002-.157-.016-.326.063-.468a.256.256 0 0 1 .383-.07c.155.129.202.341.224.533.078.748.152 1.496.23 2.245.39-.35.568-.919.442-1.428-.038-.163-.1-.33-.065-.5a.285.285 0 0 1 .32-.215c.16.022.273.158.333.298.095.232.095.491.076.738-.056.562-.294 1.08-.458 1.615-.16.472-.27.997-.11 1.484.143.456.505.817.93 1.02.523.258 1.114.338 1.691.361-.351-.614-.733-1.264-.726-1.995.007-.736.475-1.356.6-2.066.216-1.178-.315-2.46-1.305-3.135-.44-.302-.968-.437-1.42-.717-.408-.25-.775-.695-.71-1.202.31-.12.656-.043.936.118.548.292.896.846 1.446 1.134.194.105.415.157.635.144.12-.286 0-.606-.192-.828-.362-.436-.972-.542-1.35-.959-.19-.217-.296-.528-.216-.812a.52.52 0 0 1 .529-.36c.342.02.638.235.872.472.776.775 1.222 1.83 1.397 2.9.207 1.264.046 2.554-.209 3.798-.047.254-.136.514-.07.773.028.12.114.243.247.254.183.012.334-.113.467-.222.415-.34.746-.797.882-1.32.107-.382.11-.782.102-1.175.002-.196-.012-.414.106-.584.084-.131.24-.235.402-.196.126.024.216.133.254.25.062.194.053.403.015.6-.119.545-.226 1.096-.441 1.613a3.223 3.223 0 0 1-.636 1.015c-.306.325-.685.585-.932.964-.169.258-.278.58-.204.889a.815.815 0 0 0 .467.55c.33.151.73.143 1.052-.026.255-.138.436-.376.58-.621.255-.44.409-.93.536-1.42a13.03 13.03 0 0 0 .358-2.416c.052-.87-.105-1.768-.544-2.528a3.142 3.142 0 0 0-.947-1.017c-.346-.258-.728-.481-1.009-.815-.263-.31-.445-.727-.35-1.138a.705.705 0 0 1 .607-.062c.376.128.67.43.86.771.258.403.473.881.927 1.1-.37-.727-.75-1.447-1.124-2.171-.122-.245-.242-.512-.21-.792a.448.448 0 0 1 .435-.387c.19 0 .368.107.481.256.13.167.19.374.25.574.297 1.037.595 2.074.894 3.11a3.966 3.966 0 0 0 .428-2.348c-.047-.426-.172-.838-.271-1.253-.068-.272-.048-.577.107-.816Z"/></svg>
