<svg xmlns="http://www.w3.org/2000/svg" fill="none" viewBox="0 0 16 16"><path fill="#000" fill-rule="evenodd" d="M11.346 15.932a.99.99 0 0 0 .794-.031l3.294-1.593c.346-.168.566-.52.566-.906V2.598c0-.386-.22-.738-.566-.906L12.14.1a.992.992 0 0 0-1.137.195L4.697 6.077 1.95 3.98a.663.663 0 0 0-.85.038l-.882.805a.673.673 0 0 0 0 .991L2.6 8 .217 10.185a.673.673 0 0 0 .001.99l.881.806a.663.663 0 0 0 .851.038l2.747-2.096 6.306 5.783c.1.1.217.176.343.226Zm.656-11.583L7.217 8l4.785 3.651V4.349Z" clip-rule="evenodd"/></svg>
