<svg xmlns="http://www.w3.org/2000/svg" fill="none" viewBox="0 0 950 335"><rect width="945" height="330" x="2.5" y="2.5" fill="url(#a)" stroke="url(#b)" stroke-width="5" rx="52.5"/><path fill="#788CC7" d="M274.57 277.5H147.64l-63.46-110 63.46-110h126.93l63.46 110-63.46 110Zm-120-12h113.07l56.54-98-56.54-98H154.57l-56.54 98 56.54 98Z"/><path fill="#164EAF" d="M151.1 93.5a30 30 0 1 0 0-60 30 30 0 0 0 0 60ZM271.1 93.5a30 30 0 1 0 0-60 30 30 0 0 0 0 60ZM91.1 197.5a30 30 0 1 0 0-60 30 30 0 0 0 0 60ZM331.1 197.5a30 30 0 1 0 0-60 30 30 0 0 0 0 60ZM151.1 301.5a30 30 0 1 0 0-60 30 30 0 0 0 0 60ZM271.1 301.5a30 30 0 1 0 0-60 30 30 0 0 0 0 60Z"/><path fill="#FFB30F" d="M211.1 227.5a60 60 0 1 0 0-120 60 60 0 0 0 0 120Z"/><path fill="#000" d="m474.42 250.82-.1-65.73h-9.68l-24.7 43.57-25.14-43.57h-9.69v65.73h11.22v-43l20.83 35.47h5.23l20.81-36.04.09 43.57h11.13Zm59.61-24.79c.1-4.7-.98-9.37-3.13-13.56a22.56 22.56 0 0 0-8.68-9.11 24.62 24.62 0 0 0-12.62-3.24 25.25 25.25 0 0 0-12.85 3.29 23.23 23.23 0 0 0-8.9 9.15 27.03 27.03 0 0 0-3.22 13.2 26.6 26.6 0 0 0 3.3 13.28 23.18 23.18 0 0 0 9.38 9.16 31.5 31.5 0 0 0 25.24 1.22 20.44 20.44 0 0 0 8.22-6.13l-6.06-7.21a17.29 17.29 0 0 1-13.12 5.44 16.61 16.61 0 0 1-10.45-3.24 13.71 13.71 0 0 1-5.2-8.78h37.92c.12-1.5.18-2.65.18-3.47Zm-24.42-16.52c3.4-.1 6.7 1.1 9.22 3.38 2.5 2.3 4.08 5.44 4.44 8.83h-27.42a14.2 14.2 0 0 1 4.57-8.88 13.34 13.34 0 0 1 9.19-3.33Zm69.47-28.37v25.74a17.7 17.7 0 0 0-6.78-5.08 22.25 22.25 0 0 0-8.77-1.69 24.73 24.73 0 0 0-12.54 3.2 22.63 22.63 0 0 0-8.73 9.02 30.16 30.16 0 0 0 0 26.9 22.53 22.53 0 0 0 8.73 9.06 24.7 24.7 0 0 0 12.53 3.2c3.13.03 6.22-.57 9.1-1.79a17.54 17.54 0 0 0 6.91-5.35v6.48h10.85v-69.69h-11.3Zm-14.2 60.3a13.68 13.68 0 0 1-12.49-7.42 18.89 18.89 0 0 1 0-16.53 13.68 13.68 0 0 1 5.16-5.5 14.91 14.91 0 0 1 14.65 0c2.2 1.32 4 3.22 5.16 5.5a18.92 18.92 0 0 1 0 16.53 13.68 13.68 0 0 1-12.48 7.41Zm38.54 9.37h11.31V200.7h-11.32v50.13h.01Zm42.78-50.69a39.3 39.3 0 0 0-11.3 1.6c-3.32.93-6.42 2.5-9.14 4.6l4.43 8.54a19.48 19.48 0 0 1 6.64-3.66 25.1 25.1 0 0 1 8-1.32c3.25-.24 6.47.77 9 2.82a10.47 10.47 0 0 1 3.02 8.08v.75H644.4a23.4 23.4 0 0 0-15.25 4.08 13.47 13.47 0 0 0-4.83 10.84c-.04 2.75.73 5.44 2.21 7.75a14.8 14.8 0 0 0 6.29 5.34c2.98 1.34 6.23 2 9.5 1.93 3.18.08 6.34-.5 9.27-1.74a13.3 13.3 0 0 0 5.92-5.02v6.1h10.68v-29.38a20.95 20.95 0 0 0-5.66-16.02 23 23 0 0 0-16.33-5.3v.01Zm-1.54 42.82c-2.4.14-4.79-.52-6.78-1.88a6.06 6.06 0 0 1-2.44-5.08c0-4.44 3.25-6.67 9.77-6.67h11.67v5.82a10.9 10.9 0 0 1-4.66 5.77 14.19 14.19 0 0 1-7.56 2.02v.02Zm118.6-57.85-16.19 50.24-16.02-50.24h-10.84l-16.38 49.96-15.73-49.96h-12.22l20.99 65.73h12.57l15.92-48.64L741 250.82h12.48l21-65.73h-11.22Zm18.38 65.72h11.3V200.7h-11.3v50.13Zm60.79 0h13.74L834.1 221.7l20.18-21.02H840.7l-23.43 22.54v-42.08h-11.31v69.68h11.3V237.6l8.42-8.27 16.74 21.5Zm18.81 0h11.31V200.7h-11.3v50.13Zm-252.12-56.8a7.28 7.28 0 0 0 5.2-1.92 6.26 6.26 0 0 0 1.5-7.17 5.5 5.5 0 0 0-1.55-1.96 7.75 7.75 0 0 0-5.15-1.75 7.52 7.52 0 0 0-5.16 1.84 6.04 6.04 0 0 0 0 9.13 7.5 7.5 0 0 0 5.16 1.84Zm178.22 0a7.28 7.28 0 0 0 5.2-1.92 6.25 6.25 0 0 0 1.5-7.17 5.5 5.5 0 0 0-1.55-1.96 7.75 7.75 0 0 0-5.16-1.75 7.52 7.52 0 0 0-5.15 1.84 6.06 6.06 0 0 0 0 9.13 7.51 7.51 0 0 0 5.15 1.84Zm79.6 0a7.28 7.28 0 0 0 5.2-1.91 6.25 6.25 0 0 0 2.04-4.74 5.51 5.51 0 0 0-2.08-4.4 7.75 7.75 0 0 0-5.16-1.75 7.51 7.51 0 0 0-5.15 1.84 6.05 6.05 0 0 0 0 9.13 7.5 7.5 0 0 0 5.15 1.83ZM417.05 160.16a31.7 31.7 0 0 1-11.94-6.7l4.5-11.11c3.12 2.64 6.7 4.7 10.54 6.1 4 1.55 8.26 2.35 12.55 2.36 5.2 0 9.08-.91 11.65-2.75a8.51 8.51 0 0 0 3.85-7.25 7.39 7.39 0 0 0-2.15-5.45 14.85 14.85 0 0 0-5.45-3.35c-2.2-.8-5.2-1.72-9-2.75a97.31 97.31 0 0 1-12.95-4.18 21.42 21.42 0 0 1-8.5-6.54c-2.36-2.97-3.55-6.99-3.55-12.05a22.04 22.04 0 0 1 3.15-11.6 21.83 21.83 0 0 1 9.5-8.3c4.24-2.05 9.42-3.08 15.55-3.08 4.26 0 8.5.6 12.6 1.76a33.3 33.3 0 0 1 10.7 5.06l-4.1 11.1a38.65 38.65 0 0 0-9.6-4.5c-3.14-1-6.4-1.52-9.7-1.54-5.13 0-8.95.95-11.45 2.86a9.07 9.07 0 0 0-3.75 7.59 7.19 7.19 0 0 0 2.15 5.39 15.18 15.18 0 0 0 5.45 3.3c2.2.8 5.2 1.72 9 2.75a88.67 88.67 0 0 1 12.8 4.12 22.02 22.02 0 0 1 8.55 6.54c2.37 2.94 3.55 6.9 3.55 11.88a21.06 21.06 0 0 1-12.7 19.8 35.76 35.76 0 0 1-15.6 3.08 49 49 0 0 1-15.65-2.54Zm103.93-23.34h-42.12a16.35 16.35 0 0 0 5.78 10.34c3.3 2.6 7.41 3.95 11.61 3.81a18.68 18.68 0 0 0 14.57-6.41l6.74 8.51a22.88 22.88 0 0 1-9.15 7.2 33.23 33.23 0 0 1-28.04-1.45 26.52 26.52 0 0 1-10.4-10.78 32.84 32.84 0 0 1-3.67-15.65 33.35 33.35 0 0 1 3.56-15.53 26.47 26.47 0 0 1 24.18-14.65 25.65 25.65 0 0 1 23.68 14.54 35.18 35.18 0 0 1 3.46 15.98c0 .95-.07 2.32-.2 4.09Zm-37.15-19.63a17.05 17.05 0 0 0-5.07 10.45h30.46a16.87 16.87 0 0 0-4.93-10.4 14.18 14.18 0 0 0-10.25-3.98 14.33 14.33 0 0 0-10.2 3.93Zm131.97-8.43c4 4.37 6.01 10.92 6.01 19.66v34.27h-12.73v-32.48c0-5.23-1.05-9.17-3.15-11.82-2.1-2.65-5.13-3.97-9.06-3.97a12.71 12.71 0 0 0-10.3 4.64c-2.57 3.1-3.86 7.53-3.86 13.28v30.35h-12.73v-32.48c0-5.23-1.05-9.17-3.16-11.82-2.1-2.65-5.12-3.97-9.06-3.97a12.74 12.74 0 0 0-10.34 4.59c-2.54 3.06-3.81 7.5-3.81 13.33v30.35h-12.73v-60.48H543v8.29c2-2.66 4.62-4.78 7.63-6.17a23.92 23.92 0 0 1 10.19-2.12c3.77-.08 7.5.79 10.84 2.52a18.3 18.3 0 0 1 7.49 7.45 23.08 23.08 0 0 1 8.65-7.34 25.94 25.94 0 0 1 11.72-2.63c6.85 0 12.28 2.18 16.28 6.55Zm57.03-.3c4.18 4.16 6.28 10.44 6.28 18.85v35.38h-11.86v-7.96a15.02 15.02 0 0 1-6.59 5.92 23.7 23.7 0 0 1-10.3 2.04c-3.64.09-7.26-.7-10.55-2.26a16.76 16.76 0 0 1-6.99-6.3 17.16 17.16 0 0 1-2.47-9.13c0-5.3 1.8-9.57 5.38-12.77 3.59-3.21 9.23-4.81 16.94-4.81h13.87v-.89c0-4.13-1.12-7.3-3.36-9.5-2.25-2.22-5.58-3.32-10-3.33-3.04 0-6.04.53-8.9 1.55a21.35 21.35 0 0 0-7.39 4.31l-4.93-10.06c3-2.46 6.45-4.3 10.15-5.42a41.4 41.4 0 0 1 12.57-1.88c7.91 0 13.96 2.09 18.15 6.25Zm-11.46 41.8c2.46-1.6 4.28-4.01 5.17-6.8v-6.86h-12.96c-7.24 0-10.86 2.62-10.86 7.85a7.3 7.3 0 0 0 2.71 5.97c1.81 1.48 4.32 2.22 7.54 2.21 2.97.06 5.9-.77 8.4-2.38Zm78.56-41.48c4.12 4.38 6.18 10.88 6.18 19.5v34.09h-12.66v-32.31c0-5.2-1.11-9.12-3.34-11.76-2.23-2.63-5.4-3.95-9.52-3.95-4.66 0-8.34 1.54-11.04 4.62-2.7 3.09-4.05 7.52-4.05 13.31v30.08h-12.66v-60.15h12.05v8.35a19.97 19.97 0 0 1 7.9-6.24 26.17 26.17 0 0 1 10.74-2.11c6.82 0 12.28 2.19 16.4 6.57Zm51.65 49.94a14.3 14.3 0 0 1-5.37 2.98c-2.16.67-4.41 1-6.67 1-5.9 0-10.45-1.7-13.66-5.08-3.21-3.39-4.82-8.32-4.82-14.8v-29.57h-8.83v-11.04h8.83V83.5h12.55v18.7h14.36v11.04H773.6v29.23c0 2.87.64 5.06 1.91 6.58a6.81 6.81 0 0 0 5.52 2.26c2.56.09 5.07-.78 7.03-2.43l3.51 9.83Zm9.93-64.17a6.78 6.78 0 0 1 0-9.2 5.97 5.97 0 0 1 4.46-1.84 6.13 6.13 0 0 1 6.25 6.19 6.82 6.82 0 0 1-1.76 4.77 5.8 5.8 0 0 1-4.49 1.93 5.97 5.97 0 0 1-4.46-1.85Zm-1.8 7.66h12.5v60.48h-12.5v-60.48Zm36.57 56.61a27.05 27.05 0 0 1-10.35-10.78 34.65 34.65 0 0 1 0-31.24 27.3 27.3 0 0 1 10.3-10.72 29.1 29.1 0 0 1 15.03-3.87c4.87-.11 9.69 1.11 13.92 3.53 4 2.37 7.14 5.93 9 10.18l-9.65 6.2a16.14 16.14 0 0 0-5.78-6.15 14.68 14.68 0 0 0-7.6-2.04 15.17 15.17 0 0 0-11.65 5.03c-3.09 3.36-4.63 7.83-4.63 13.44 0 5.6 1.53 10.07 4.58 13.43a15.12 15.12 0 0 0 11.7 5.03c2.68.02 5.3-.68 7.6-2.04a16.08 16.08 0 0 0 5.78-6.14l9.65 6.2a23.06 23.06 0 0 1-9.1 10.22 26.3 26.3 0 0 1-13.82 3.6 29.17 29.17 0 0 1-14.98-3.88Z"/><defs><linearGradient id="a" x1="0" y1="0" x2="0" y2="1"><stop stop-color="#fff"/><stop offset="1" stop-color="#ECECEC"/></linearGradient><linearGradient id="b" x1="0" y1="0" x2="0" y2="1"><stop stop-color="#C8C8C8"/><stop offset="1" stop-color="#787878"/></linearGradient></defs></svg>
