<svg xmlns="http://www.w3.org/2000/svg" fill="none" viewBox="0 0 88 31"><path fill="#000" d="M13.068 7.437a3.865 3.865 0 0 0 1.132 2.665c.54.495 1.241.775 1.973.787a.919.919 0 0 0 .628-.281 3 3 0 0 0 .7-2.876C16.97 5.893 15.5 4.878 13.7 3.993a8.025 8.025 0 0 0-.632 3.444Z" opacity=".65"/><path fill="#000" d="M10.4 10.109a3.848 3.848 0 0 0 2.065 2.025c.687.25 1.442.239 2.122-.031a.923.923 0 0 0 .473-.5 3 3 0 0 0-.443-2.925c-1.2-1.493-2.94-1.869-4.942-1.991a8.024 8.024 0 0 0 .725 3.422Z" opacity=".65"/><path fill="#000" d="M8.959 13.602a3.83 3.83 0 0 0 2.68 1.076 2.99 2.99 0 0 0 1.949-.844.927.927 0 0 0 .246-.645 3 3 0 0 0-1.528-2.533c-1.675-.919-3.428-.6-5.324.06a8 8 0 0 0 1.977 2.886Z" opacity=".65"/><path fill="#000" d="M8.956 17.385c.93.365 1.965.353 2.885-.035a3 3 0 0 0 1.479-1.529.928.928 0 0 0-.018-.69 2.98 2.98 0 0 0-2.376-1.753c-1.9-.2-3.394.766-4.9 2.1a7.955 7.955 0 0 0 2.93 1.907Z" opacity=".65"/><path fill="#000" d="M10.394 20.878c1-.02 1.951-.43 2.653-1.14a3.017 3.017 0 0 0 .784-1.982.926.926 0 0 0-.28-.63 2.972 2.972 0 0 0-2.863-.707c-1.831.54-2.844 2.013-3.722 3.824a7.928 7.928 0 0 0 3.428.635Z" opacity=".65"/><path fill="#000" d="M13.054 23.557a3.849 3.849 0 0 0 2.016-2.079c.25-.69.238-1.449-.031-2.132a.922.922 0 0 0-.5-.476 2.97 2.97 0 0 0-2.914.449c-1.486 1.2-1.86 2.953-1.982 4.964a7.927 7.927 0 0 0 3.411-.726Z" opacity=".65"/><path fill="#000" d="M16.531 25.008a3.867 3.867 0 0 0 1.069-2.692 3.015 3.015 0 0 0-.841-1.958.918.918 0 0 0-.642-.248 2.978 2.978 0 0 0-2.517 1.535c-.914 1.683-.594 3.443.06 5.348a7.957 7.957 0 0 0 2.871-1.985Z" opacity=".65"/><path fill="#000" d="M20.3 25.011a3.873 3.873 0 0 0-.035-2.9 3 3 0 0 0-1.522-1.486.917.917 0 0 0-.687.018 2.992 2.992 0 0 0-1.745 2.387c-.2 1.906.763 3.409 2.093 4.918a8 8 0 0 0 1.896-2.937Z" opacity=".65"/><path fill="#000" d="M23.776 23.567a3.866 3.866 0 0 0-1.136-2.665 2.99 2.99 0 0 0-1.973-.788.92.92 0 0 0-.628.281 3 3 0 0 0-.7 2.876c.538 1.839 2 2.857 3.807 3.739a8.024 8.024 0 0 0 .63-3.443Z" opacity=".65"/><path fill="#000" d="M26.441 20.895a3.848 3.848 0 0 0-2.065-2.025 2.984 2.984 0 0 0-2.122.031.923.923 0 0 0-.473.5 3.001 3.001 0 0 0 .447 2.927c1.2 1.493 2.94 1.869 4.942 1.991a8.026 8.026 0 0 0-.729-3.424Z" opacity=".65"/><path fill="#000" d="M27.885 17.402a3.831 3.831 0 0 0-2.679-1.077 2.99 2.99 0 0 0-1.949.844.927.927 0 0 0-.246.645 3 3 0 0 0 1.528 2.533c1.675.92 3.428.6 5.324-.06a7.995 7.995 0 0 0-1.978-2.885Z" opacity=".65"/><path fill="#000" d="M27.888 13.62a3.824 3.824 0 0 0-2.888.034 3 3 0 0 0-1.479 1.53.928.928 0 0 0 .018.69 2.982 2.982 0 0 0 2.376 1.753c1.9.2 3.394-.767 4.9-2.1a7.954 7.954 0 0 0-2.927-1.908Z" opacity=".65"/><path fill="#000" d="M26.451 10.124a3.83 3.83 0 0 0-2.651 1.141 3.017 3.017 0 0 0-.784 1.982.927.927 0 0 0 .28.631 2.972 2.972 0 0 0 2.863.706c1.831-.54 2.844-2.013 3.722-3.824a7.925 7.925 0 0 0-3.43-.636Z" opacity=".65"/><path fill="#000" d="M23.791 7.447a3.849 3.849 0 0 0-2.016 2.074 3.022 3.022 0 0 0 .031 2.132.922.922 0 0 0 .5.476 2.97 2.97 0 0 0 2.914-.449c1.486-1.2 1.86-2.953 1.982-4.964a7.928 7.928 0 0 0-3.411.731Z" opacity=".65"/><path fill="#000" d="M20.313 5.996a3.867 3.867 0 0 0-1.072 2.692c.032.733.331 1.43.84 1.958a.918.918 0 0 0 .642.248 2.977 2.977 0 0 0 2.522-1.536c.914-1.683.594-3.443-.06-5.348a7.958 7.958 0 0 0-2.872 1.986Z" opacity=".65"/><path fill="#000" d="M16.548 5.993a3.874 3.874 0 0 0 .035 2.9 3 3 0 0 0 1.522 1.485.918.918 0 0 0 .687-.018 2.993 2.993 0 0 0 1.745-2.387c.2-1.906-.763-3.409-2.093-4.918a8 8 0 0 0-1.896 2.938Z" opacity=".65"/><path fill="#000" d="M79.78 17.829c0-.4.332-.679.727-.679.4 0 .728.278.728.679 0 .4-.328.674-.728.674-.395 0-.727-.274-.727-.674Zm.088 6.465v-5.181h1.284v5.18h-1.284ZM75.633 22.516v1.778h-1.29v-7.017h1.29v3.965h.058l1.69-2.13h1.489l-1.89 2.237 2.017 2.945h-1.519l-1.48-2.207-.365.43ZM71.466 17.829c0-.4.332-.679.728-.679.4 0 .727.278.727.679 0 .4-.327.674-.727.674-.396 0-.728-.274-.728-.674Zm.088 6.465v-5.181h1.284v5.18h-1.284ZM65.053 24.294h-1.215l-1.763-6.666h1.401l1.035 4.756h.05l1.18-4.756h1.144l1.176 4.756h.054l1.03-4.756h1.402l-1.763 6.666h-1.216l-1.23-4.62h-.05l-1.235 4.62ZM58.856 24.372c-1.011 0-1.704-.596-1.704-1.573 0-.927.644-1.523 1.845-1.523h1.265v-.469c0-.517-.313-.805-.855-.805-.527 0-.83.278-.864.693h-1.201c.039-.864.596-1.665 2.09-1.665 1.191 0 2.1.556 2.1 1.763v3.5h-1.216v-.63h-.054c-.205.382-.645.709-1.406.709Zm.415-.938c.551 0 .99-.337.99-.84v-.547h-.985c-.567 0-.845.274-.845.67 0 .483.41.717.84.717ZM54.547 17.829c0-.4.333-.679.728-.679.4 0 .728.278.728.679 0 .4-.328.674-.728.674-.395 0-.727-.274-.727-.674Zm.088 6.465v-5.181h1.285v5.18h-1.285ZM50.308 19.045c.703 0 1.245.336 1.474.825h.05v-2.593h1.288v7.017h-1.264v-.801h-.054c-.244.532-.786.864-1.494.864-1.26 0-1.983-.937-1.983-2.441v-.435c0-1.48.747-2.436 1.983-2.436Zm.41 1.03c-.62 0-1.074.478-1.074 1.45v.357c0 .971.454 1.45 1.084 1.45.678 0 1.113-.503 1.113-1.446v-.361c0-.908-.44-1.45-1.123-1.45ZM45.072 24.386c-1.421 0-2.349-.888-2.349-2.475v-.474c0-1.518.933-2.417 2.295-2.417 1.411 0 2.285.962 2.285 2.451v.508h-3.32v.142c0 .786.444 1.284 1.099 1.284.512 0 .874-.254.981-.674h1.191c-.121.83-.795 1.655-2.182 1.655Zm-1.089-3.222h2.075v-.01c0-.669-.405-1.177-1.03-1.177-.63 0-1.045.513-1.045 1.177v.01ZM36.057 24.294H34.88v-6.666h1.343l1.9 4.302h.038l1.905-4.302h1.333v6.666h-1.187v-4.405h-.054l-1.592 3.57h-.859l-1.596-3.57h-.054v4.405ZM80.829 8.32c-.047.158-1.735 4.894-1.74 4.899l-.125.339c-.38 1.034-.858 1.35-1.68 1.35-.148 0-.315-.014-.45-.042v-.65c.08.01.233.019.353.019.557 0 .822-.19.96-.705l.075-.265-1.795-4.944h.886l1.317 3.989h.028l1.322-3.99h.849ZM74.073 13.275c-.696 0-1.169-.311-1.456-.812h-.024v.733h-.765V6.53h.798v2.459h.023c.25-.423.816-.743 1.433-.743 1.137 0 1.935.807 1.935 2.273v.473c0 1.41-.77 2.283-1.944 2.283Zm-.097-.696c.733 0 1.238-.585 1.238-1.628v-.385c0-1.053-.51-1.624-1.238-1.624-.85 0-1.36.566-1.36 1.624v.375c0 1.058.506 1.638 1.36 1.638ZM66.494 8.246c.645 0 1.155.32 1.401.752h.023V6.53h.798v6.666h-.765v-.733h-.019c-.273.5-.784.807-1.438.807-1.27 0-1.948-.932-1.948-2.291v-.441c0-1.327.72-2.292 1.948-2.292Zm.112.696c-.724 0-1.257.538-1.257 1.624v.385c0 1.085.533 1.623 1.27 1.623.817 0 1.313-.584 1.313-1.619v-.39c0-.983-.505-1.623-1.326-1.623ZM61.682 13.275c-1.27 0-2.045-.896-2.045-2.283v-.547c0-1.285.728-2.203 2.008-2.203 1.276 0 2.009.918 2.009 2.259v.454h-3.22v.088c0 .928.474 1.564 1.267 1.564.566 0 .937-.283 1.094-.738h.794c-.186.807-.83 1.406-1.907 1.406Zm-1.248-2.965h2.422v-.013c0-.775-.478-1.387-1.206-1.387-.742 0-1.216.617-1.216 1.387v.013ZM56.74 13.196V8.32h.798v.598h.023c.144-.292.51-.673 1.202-.673.102 0 .204.01.301.024v.728a2.945 2.945 0 0 0-.39-.019c-.862 0-1.131.538-1.131 1.197v3.02h-.803ZM53.681 13.275c-1.27 0-2.045-.896-2.045-2.283v-.547c0-1.285.728-2.203 2.008-2.203 1.276 0 2.009.918 2.009 2.259v.454h-3.22v.088c0 .928.474 1.564 1.267 1.564.566 0 .937-.283 1.095-.738h.793c-.186.807-.83 1.406-1.907 1.406Zm-1.247-2.965h2.421v-.013c0-.775-.478-1.387-1.206-1.387-.742 0-1.215.617-1.215 1.387v.013ZM51.063 8.32l-1.275 4.876h-.826L47.85 9.438h-.019l-1.108 3.758h-.83L44.62 8.32h.807l.896 3.854h.037l1.1-3.854h.76l1.104 3.854h.037l.895-3.854h.807ZM41.937 8.242c1.364 0 2.088.988 2.088 2.291v.436c0 1.322-.72 2.306-2.088 2.306s-2.096-.984-2.096-2.306v-.436c0-1.303.733-2.291 2.096-2.291Zm0 .682c-.84 0-1.298.64-1.298 1.637v.38c0 .993.459 1.643 1.298 1.643.835 0 1.29-.645 1.29-1.643v-.38c0-.997-.455-1.637-1.29-1.637ZM37.185 6.864c1.206 0 2.014.793 2.014 1.971 0 1.188-.807 1.967-2.014 1.967h-1.498v2.394h-.807V6.864h2.305Zm1.183 1.971c0-.793-.454-1.252-1.243-1.252h-1.438v2.505h.96c1.086 0 1.721-.213 1.721-1.253Z"/></svg>
